<?xml version="1.0" encoding="utf-8" standalone="no"?>
<!DOCTYPE svg PUBLIC "-//W3C//DTD SVG 1.1//EN"
  "http://www.w3.org/Graphics/SVG/1.1/DTD/svg11.dtd">
<svg xmlns:xlink="http://www.w3.org/1999/xlink" width="460.8pt" height="345.6pt" viewBox="0 0 460.8 345.6" xmlns="http://www.w3.org/2000/svg" version="1.1">
 <metadata>
  <rdf:RDF xmlns:dc="http://purl.org/dc/elements/1.1/" xmlns:cc="http://creativecommons.org/ns#" xmlns:rdf="http://www.w3.org/1999/02/22-rdf-syntax-ns#">
   <cc:Work>
    <dc:type rdf:resource="http://purl.org/dc/dcmitype/StillImage"/>
    <dc:date>2022-08-01T21:42:28.074127</dc:date>
    <dc:format>image/svg+xml</dc:format>
    <dc:creator>
     <cc:Agent>
      <dc:title>Matplotlib v3.5.1, https://matplotlib.org/</dc:title>
     </cc:Agent>
    </dc:creator>
   </cc:Work>
  </rdf:RDF>
 </metadata>
 <defs>
  <style type="text/css">*{stroke-linejoin: round; stroke-linecap: butt}</style>
 </defs>
 <g id="figure_1">
  <g id="patch_1">
   <path d="M 0 345.6 
L 460.8 345.6 
L 460.8 0 
L 0 0 
z
" style="fill: #ffffff"/>
  </g>
  <g id="axes_1">
   <g id="patch_2">
    <path d="M 69.12 293.76 
L 414.72 293.76 
L 414.72 41.472 
L 69.12 41.472 
z
" style="fill: #e5e5e5"/>
   </g>
   <g id="matplotlib.axis_1">
    <g id="xtick_1">
     <g id="line2d_1">
      <path d="M 84.829091 293.76 
L 84.829091 41.472 
" clip-path="url(#p4627ee26a5)" style="fill: none; stroke: #ffffff; stroke-width: 0.8; stroke-linecap: square"/>
     </g>
     <g id="line2d_2">
      <defs>
       <path id="m2d4d40f951" d="M 0 0 
L 0 3.5 
" style="stroke: #555555; stroke-width: 0.8"/>
      </defs>
      <g>
       <use xlink:href="#m2d4d40f951" x="84.829091" y="293.76" style="fill: #555555; stroke: #555555; stroke-width: 0.8"/>
      </g>
     </g>
     <g id="text_1">
      <!-- 2 -->
      <g style="fill: #555555" transform="translate(79.739091 312.9175)scale(0.16 -0.16)">
       <defs>
        <path id="DejaVuSans-32" d="M 1228 531 
L 3431 531 
L 3431 0 
L 469 0 
L 469 531 
Q 828 903 1448 1529 
Q 2069 2156 2228 2338 
Q 2531 2678 2651 2914 
Q 2772 3150 2772 3378 
Q 2772 3750 2511 3984 
Q 2250 4219 1831 4219 
Q 1534 4219 1204 4116 
Q 875 4013 500 3803 
L 500 4441 
Q 881 4594 1212 4672 
Q 1544 4750 1819 4750 
Q 2544 4750 2975 4387 
Q 3406 4025 3406 3419 
Q 3406 3131 3298 2873 
Q 3191 2616 2906 2266 
Q 2828 2175 2409 1742 
Q 1991 1309 1228 531 
z
" transform="scale(0.015625)"/>
       </defs>
       <use xlink:href="#DejaVuSans-32"/>
      </g>
     </g>
    </g>
    <g id="xtick_2">
     <g id="line2d_3">
      <path d="M 154.647273 293.76 
L 154.647273 41.472 
" clip-path="url(#p4627ee26a5)" style="fill: none; stroke: #ffffff; stroke-width: 0.8; stroke-linecap: square"/>
     </g>
     <g id="line2d_4">
      <g>
       <use xlink:href="#m2d4d40f951" x="154.647273" y="293.76" style="fill: #555555; stroke: #555555; stroke-width: 0.8"/>
      </g>
     </g>
     <g id="text_2">
      <!-- 4 -->
      <g style="fill: #555555" transform="translate(149.557273 312.9175)scale(0.16 -0.16)">
       <defs>
        <path id="DejaVuSans-34" d="M 2419 4116 
L 825 1625 
L 2419 1625 
L 2419 4116 
z
M 2253 4666 
L 3047 4666 
L 3047 1625 
L 3713 1625 
L 3713 1100 
L 3047 1100 
L 3047 0 
L 2419 0 
L 2419 1100 
L 313 1100 
L 313 1709 
L 2253 4666 
z
" transform="scale(0.015625)"/>
       </defs>
       <use xlink:href="#DejaVuSans-34"/>
      </g>
     </g>
    </g>
    <g id="xtick_3">
     <g id="line2d_5">
      <path d="M 224.465455 293.76 
L 224.465455 41.472 
" clip-path="url(#p4627ee26a5)" style="fill: none; stroke: #ffffff; stroke-width: 0.8; stroke-linecap: square"/>
     </g>
     <g id="line2d_6">
      <g>
       <use xlink:href="#m2d4d40f951" x="224.465455" y="293.76" style="fill: #555555; stroke: #555555; stroke-width: 0.8"/>
      </g>
     </g>
     <g id="text_3">
      <!-- 6 -->
      <g style="fill: #555555" transform="translate(219.375455 312.9175)scale(0.16 -0.16)">
       <defs>
        <path id="DejaVuSans-36" d="M 2113 2584 
Q 1688 2584 1439 2293 
Q 1191 2003 1191 1497 
Q 1191 994 1439 701 
Q 1688 409 2113 409 
Q 2538 409 2786 701 
Q 3034 994 3034 1497 
Q 3034 2003 2786 2293 
Q 2538 2584 2113 2584 
z
M 3366 4563 
L 3366 3988 
Q 3128 4100 2886 4159 
Q 2644 4219 2406 4219 
Q 1781 4219 1451 3797 
Q 1122 3375 1075 2522 
Q 1259 2794 1537 2939 
Q 1816 3084 2150 3084 
Q 2853 3084 3261 2657 
Q 3669 2231 3669 1497 
Q 3669 778 3244 343 
Q 2819 -91 2113 -91 
Q 1303 -91 875 529 
Q 447 1150 447 2328 
Q 447 3434 972 4092 
Q 1497 4750 2381 4750 
Q 2619 4750 2861 4703 
Q 3103 4656 3366 4563 
z
" transform="scale(0.015625)"/>
       </defs>
       <use xlink:href="#DejaVuSans-36"/>
      </g>
     </g>
    </g>
    <g id="xtick_4">
     <g id="line2d_7">
      <path d="M 294.283636 293.76 
L 294.283636 41.472 
" clip-path="url(#p4627ee26a5)" style="fill: none; stroke: #ffffff; stroke-width: 0.8; stroke-linecap: square"/>
     </g>
     <g id="line2d_8">
      <g>
       <use xlink:href="#m2d4d40f951" x="294.283636" y="293.76" style="fill: #555555; stroke: #555555; stroke-width: 0.8"/>
      </g>
     </g>
     <g id="text_4">
      <!-- 8 -->
      <g style="fill: #555555" transform="translate(289.193636 312.9175)scale(0.16 -0.16)">
       <defs>
        <path id="DejaVuSans-38" d="M 2034 2216 
Q 1584 2216 1326 1975 
Q 1069 1734 1069 1313 
Q 1069 891 1326 650 
Q 1584 409 2034 409 
Q 2484 409 2743 651 
Q 3003 894 3003 1313 
Q 3003 1734 2745 1975 
Q 2488 2216 2034 2216 
z
M 1403 2484 
Q 997 2584 770 2862 
Q 544 3141 544 3541 
Q 544 4100 942 4425 
Q 1341 4750 2034 4750 
Q 2731 4750 3128 4425 
Q 3525 4100 3525 3541 
Q 3525 3141 3298 2862 
Q 3072 2584 2669 2484 
Q 3125 2378 3379 2068 
Q 3634 1759 3634 1313 
Q 3634 634 3220 271 
Q 2806 -91 2034 -91 
Q 1263 -91 848 271 
Q 434 634 434 1313 
Q 434 1759 690 2068 
Q 947 2378 1403 2484 
z
M 1172 3481 
Q 1172 3119 1398 2916 
Q 1625 2713 2034 2713 
Q 2441 2713 2670 2916 
Q 2900 3119 2900 3481 
Q 2900 3844 2670 4047 
Q 2441 4250 2034 4250 
Q 1625 4250 1398 4047 
Q 1172 3844 1172 3481 
z
" transform="scale(0.015625)"/>
       </defs>
       <use xlink:href="#DejaVuSans-38"/>
      </g>
     </g>
    </g>
    <g id="xtick_5">
     <g id="line2d_9">
      <path d="M 364.101818 293.76 
L 364.101818 41.472 
" clip-path="url(#p4627ee26a5)" style="fill: none; stroke: #ffffff; stroke-width: 0.8; stroke-linecap: square"/>
     </g>
     <g id="line2d_10">
      <g>
       <use xlink:href="#m2d4d40f951" x="364.101818" y="293.76" style="fill: #555555; stroke: #555555; stroke-width: 0.8"/>
      </g>
     </g>
     <g id="text_5">
      <!-- 10 -->
      <g style="fill: #555555" transform="translate(353.921818 312.9175)scale(0.16 -0.16)">
       <defs>
        <path id="DejaVuSans-31" d="M 794 531 
L 1825 531 
L 1825 4091 
L 703 3866 
L 703 4441 
L 1819 4666 
L 2450 4666 
L 2450 531 
L 3481 531 
L 3481 0 
L 794 0 
L 794 531 
z
" transform="scale(0.015625)"/>
        <path id="DejaVuSans-30" d="M 2034 4250 
Q 1547 4250 1301 3770 
Q 1056 3291 1056 2328 
Q 1056 1369 1301 889 
Q 1547 409 2034 409 
Q 2525 409 2770 889 
Q 3016 1369 3016 2328 
Q 3016 3291 2770 3770 
Q 2525 4250 2034 4250 
z
M 2034 4750 
Q 2819 4750 3233 4129 
Q 3647 3509 3647 2328 
Q 3647 1150 3233 529 
Q 2819 -91 2034 -91 
Q 1250 -91 836 529 
Q 422 1150 422 2328 
Q 422 3509 836 4129 
Q 1250 4750 2034 4750 
z
" transform="scale(0.015625)"/>
       </defs>
       <use xlink:href="#DejaVuSans-31"/>
       <use xlink:href="#DejaVuSans-30" x="63.623047"/>
      </g>
     </g>
    </g>
    <g id="text_6">
     <!-- Partition Number -->
     <g transform="translate(156.898125 335.441875)scale(0.2 -0.2)">
      <defs>
       <path id="DejaVuSans-50" d="M 1259 4147 
L 1259 2394 
L 2053 2394 
Q 2494 2394 2734 2622 
Q 2975 2850 2975 3272 
Q 2975 3691 2734 3919 
Q 2494 4147 2053 4147 
L 1259 4147 
z
M 628 4666 
L 2053 4666 
Q 2838 4666 3239 4311 
Q 3641 3956 3641 3272 
Q 3641 2581 3239 2228 
Q 2838 1875 2053 1875 
L 1259 1875 
L 1259 0 
L 628 0 
L 628 4666 
z
" transform="scale(0.015625)"/>
       <path id="DejaVuSans-61" d="M 2194 1759 
Q 1497 1759 1228 1600 
Q 959 1441 959 1056 
Q 959 750 1161 570 
Q 1363 391 1709 391 
Q 2188 391 2477 730 
Q 2766 1069 2766 1631 
L 2766 1759 
L 2194 1759 
z
M 3341 1997 
L 3341 0 
L 2766 0 
L 2766 531 
Q 2569 213 2275 61 
Q 1981 -91 1556 -91 
Q 1019 -91 701 211 
Q 384 513 384 1019 
Q 384 1609 779 1909 
Q 1175 2209 1959 2209 
L 2766 2209 
L 2766 2266 
Q 2766 2663 2505 2880 
Q 2244 3097 1772 3097 
Q 1472 3097 1187 3025 
Q 903 2953 641 2809 
L 641 3341 
Q 956 3463 1253 3523 
Q 1550 3584 1831 3584 
Q 2591 3584 2966 3190 
Q 3341 2797 3341 1997 
z
" transform="scale(0.015625)"/>
       <path id="DejaVuSans-72" d="M 2631 2963 
Q 2534 3019 2420 3045 
Q 2306 3072 2169 3072 
Q 1681 3072 1420 2755 
Q 1159 2438 1159 1844 
L 1159 0 
L 581 0 
L 581 3500 
L 1159 3500 
L 1159 2956 
Q 1341 3275 1631 3429 
Q 1922 3584 2338 3584 
Q 2397 3584 2469 3576 
Q 2541 3569 2628 3553 
L 2631 2963 
z
" transform="scale(0.015625)"/>
       <path id="DejaVuSans-74" d="M 1172 4494 
L 1172 3500 
L 2356 3500 
L 2356 3053 
L 1172 3053 
L 1172 1153 
Q 1172 725 1289 603 
Q 1406 481 1766 481 
L 2356 481 
L 2356 0 
L 1766 0 
Q 1100 0 847 248 
Q 594 497 594 1153 
L 594 3053 
L 172 3053 
L 172 3500 
L 594 3500 
L 594 4494 
L 1172 4494 
z
" transform="scale(0.015625)"/>
       <path id="DejaVuSans-69" d="M 603 3500 
L 1178 3500 
L 1178 0 
L 603 0 
L 603 3500 
z
M 603 4863 
L 1178 4863 
L 1178 4134 
L 603 4134 
L 603 4863 
z
" transform="scale(0.015625)"/>
       <path id="DejaVuSans-6f" d="M 1959 3097 
Q 1497 3097 1228 2736 
Q 959 2375 959 1747 
Q 959 1119 1226 758 
Q 1494 397 1959 397 
Q 2419 397 2687 759 
Q 2956 1122 2956 1747 
Q 2956 2369 2687 2733 
Q 2419 3097 1959 3097 
z
M 1959 3584 
Q 2709 3584 3137 3096 
Q 3566 2609 3566 1747 
Q 3566 888 3137 398 
Q 2709 -91 1959 -91 
Q 1206 -91 779 398 
Q 353 888 353 1747 
Q 353 2609 779 3096 
Q 1206 3584 1959 3584 
z
" transform="scale(0.015625)"/>
       <path id="DejaVuSans-6e" d="M 3513 2113 
L 3513 0 
L 2938 0 
L 2938 2094 
Q 2938 2591 2744 2837 
Q 2550 3084 2163 3084 
Q 1697 3084 1428 2787 
Q 1159 2491 1159 1978 
L 1159 0 
L 581 0 
L 581 3500 
L 1159 3500 
L 1159 2956 
Q 1366 3272 1645 3428 
Q 1925 3584 2291 3584 
Q 2894 3584 3203 3211 
Q 3513 2838 3513 2113 
z
" transform="scale(0.015625)"/>
       <path id="DejaVuSans-20" transform="scale(0.015625)"/>
       <path id="DejaVuSans-4e" d="M 628 4666 
L 1478 4666 
L 3547 763 
L 3547 4666 
L 4159 4666 
L 4159 0 
L 3309 0 
L 1241 3903 
L 1241 0 
L 628 0 
L 628 4666 
z
" transform="scale(0.015625)"/>
       <path id="DejaVuSans-75" d="M 544 1381 
L 544 3500 
L 1119 3500 
L 1119 1403 
Q 1119 906 1312 657 
Q 1506 409 1894 409 
Q 2359 409 2629 706 
Q 2900 1003 2900 1516 
L 2900 3500 
L 3475 3500 
L 3475 0 
L 2900 0 
L 2900 538 
Q 2691 219 2414 64 
Q 2138 -91 1772 -91 
Q 1169 -91 856 284 
Q 544 659 544 1381 
z
M 1991 3584 
L 1991 3584 
z
" transform="scale(0.015625)"/>
       <path id="DejaVuSans-6d" d="M 3328 2828 
Q 3544 3216 3844 3400 
Q 4144 3584 4550 3584 
Q 5097 3584 5394 3201 
Q 5691 2819 5691 2113 
L 5691 0 
L 5113 0 
L 5113 2094 
Q 5113 2597 4934 2840 
Q 4756 3084 4391 3084 
Q 3944 3084 3684 2787 
Q 3425 2491 3425 1978 
L 3425 0 
L 2847 0 
L 2847 2094 
Q 2847 2600 2669 2842 
Q 2491 3084 2119 3084 
Q 1678 3084 1418 2786 
Q 1159 2488 1159 1978 
L 1159 0 
L 581 0 
L 581 3500 
L 1159 3500 
L 1159 2956 
Q 1356 3278 1631 3431 
Q 1906 3584 2284 3584 
Q 2666 3584 2933 3390 
Q 3200 3197 3328 2828 
z
" transform="scale(0.015625)"/>
       <path id="DejaVuSans-62" d="M 3116 1747 
Q 3116 2381 2855 2742 
Q 2594 3103 2138 3103 
Q 1681 3103 1420 2742 
Q 1159 2381 1159 1747 
Q 1159 1113 1420 752 
Q 1681 391 2138 391 
Q 2594 391 2855 752 
Q 3116 1113 3116 1747 
z
M 1159 2969 
Q 1341 3281 1617 3432 
Q 1894 3584 2278 3584 
Q 2916 3584 3314 3078 
Q 3713 2572 3713 1747 
Q 3713 922 3314 415 
Q 2916 -91 2278 -91 
Q 1894 -91 1617 61 
Q 1341 213 1159 525 
L 1159 0 
L 581 0 
L 581 4863 
L 1159 4863 
L 1159 2969 
z
" transform="scale(0.015625)"/>
       <path id="DejaVuSans-65" d="M 3597 1894 
L 3597 1613 
L 953 1613 
Q 991 1019 1311 708 
Q 1631 397 2203 397 
Q 2534 397 2845 478 
Q 3156 559 3463 722 
L 3463 178 
Q 3153 47 2828 -22 
Q 2503 -91 2169 -91 
Q 1331 -91 842 396 
Q 353 884 353 1716 
Q 353 2575 817 3079 
Q 1281 3584 2069 3584 
Q 2775 3584 3186 3129 
Q 3597 2675 3597 1894 
z
M 3022 2063 
Q 3016 2534 2758 2815 
Q 2500 3097 2075 3097 
Q 1594 3097 1305 2825 
Q 1016 2553 972 2059 
L 3022 2063 
z
" transform="scale(0.015625)"/>
      </defs>
      <use xlink:href="#DejaVuSans-50"/>
      <use xlink:href="#DejaVuSans-61" x="55.802734"/>
      <use xlink:href="#DejaVuSans-72" x="117.082031"/>
      <use xlink:href="#DejaVuSans-74" x="158.195312"/>
      <use xlink:href="#DejaVuSans-69" x="197.404297"/>
      <use xlink:href="#DejaVuSans-74" x="225.1875"/>
      <use xlink:href="#DejaVuSans-69" x="264.396484"/>
      <use xlink:href="#DejaVuSans-6f" x="292.179688"/>
      <use xlink:href="#DejaVuSans-6e" x="353.361328"/>
      <use xlink:href="#DejaVuSans-20" x="416.740234"/>
      <use xlink:href="#DejaVuSans-4e" x="448.527344"/>
      <use xlink:href="#DejaVuSans-75" x="523.332031"/>
      <use xlink:href="#DejaVuSans-6d" x="586.710938"/>
      <use xlink:href="#DejaVuSans-62" x="684.123047"/>
      <use xlink:href="#DejaVuSans-65" x="747.599609"/>
      <use xlink:href="#DejaVuSans-72" x="809.123047"/>
     </g>
    </g>
   </g>
   <g id="matplotlib.axis_2">
    <g id="ytick_1">
     <g id="line2d_11">
      <path d="M 69.12 289.535081 
L 414.72 289.535081 
" clip-path="url(#p4627ee26a5)" style="fill: none; stroke: #ffffff; stroke-width: 0.8; stroke-linecap: square"/>
     </g>
     <g id="line2d_12">
      <defs>
       <path id="m166f40319d" d="M 0 0 
L -3.5 0 
" style="stroke: #555555; stroke-width: 0.8"/>
      </defs>
      <g>
       <use xlink:href="#m166f40319d" x="69.12" y="289.535081" style="fill: #555555; stroke: #555555; stroke-width: 0.8"/>
      </g>
     </g>
     <g id="text_7">
      <!-- 75 -->
      <g style="fill: #555555" transform="translate(41.76 295.613831)scale(0.16 -0.16)">
       <defs>
        <path id="DejaVuSans-37" d="M 525 4666 
L 3525 4666 
L 3525 4397 
L 1831 0 
L 1172 0 
L 2766 4134 
L 525 4134 
L 525 4666 
z
" transform="scale(0.015625)"/>
        <path id="DejaVuSans-35" d="M 691 4666 
L 3169 4666 
L 3169 4134 
L 1269 4134 
L 1269 2991 
Q 1406 3038 1543 3061 
Q 1681 3084 1819 3084 
Q 2600 3084 3056 2656 
Q 3513 2228 3513 1497 
Q 3513 744 3044 326 
Q 2575 -91 1722 -91 
Q 1428 -91 1123 -41 
Q 819 9 494 109 
L 494 744 
Q 775 591 1075 516 
Q 1375 441 1709 441 
Q 2250 441 2565 725 
Q 2881 1009 2881 1497 
Q 2881 1984 2565 2268 
Q 2250 2553 1709 2553 
Q 1456 2553 1204 2497 
Q 953 2441 691 2322 
L 691 4666 
z
" transform="scale(0.015625)"/>
       </defs>
       <use xlink:href="#DejaVuSans-37"/>
       <use xlink:href="#DejaVuSans-35" x="63.623047"/>
      </g>
     </g>
    </g>
    <g id="ytick_2">
     <g id="line2d_13">
      <path d="M 69.12 259.357091 
L 414.72 259.357091 
" clip-path="url(#p4627ee26a5)" style="fill: none; stroke: #ffffff; stroke-width: 0.8; stroke-linecap: square"/>
     </g>
     <g id="line2d_14">
      <g>
       <use xlink:href="#m166f40319d" x="69.12" y="259.357091" style="fill: #555555; stroke: #555555; stroke-width: 0.8"/>
      </g>
     </g>
     <g id="text_8">
      <!-- 100 -->
      <g style="fill: #555555" transform="translate(31.58 265.435841)scale(0.16 -0.16)">
       <use xlink:href="#DejaVuSans-31"/>
       <use xlink:href="#DejaVuSans-30" x="63.623047"/>
       <use xlink:href="#DejaVuSans-30" x="127.246094"/>
      </g>
     </g>
    </g>
    <g id="ytick_3">
     <g id="line2d_15">
      <path d="M 69.12 229.1791 
L 414.72 229.1791 
" clip-path="url(#p4627ee26a5)" style="fill: none; stroke: #ffffff; stroke-width: 0.8; stroke-linecap: square"/>
     </g>
     <g id="line2d_16">
      <g>
       <use xlink:href="#m166f40319d" x="69.12" y="229.1791" style="fill: #555555; stroke: #555555; stroke-width: 0.8"/>
      </g>
     </g>
     <g id="text_9">
      <!-- 125 -->
      <g style="fill: #555555" transform="translate(31.58 235.25785)scale(0.16 -0.16)">
       <use xlink:href="#DejaVuSans-31"/>
       <use xlink:href="#DejaVuSans-32" x="63.623047"/>
       <use xlink:href="#DejaVuSans-35" x="127.246094"/>
      </g>
     </g>
    </g>
    <g id="ytick_4">
     <g id="line2d_17">
      <path d="M 69.12 199.00111 
L 414.72 199.00111 
" clip-path="url(#p4627ee26a5)" style="fill: none; stroke: #ffffff; stroke-width: 0.8; stroke-linecap: square"/>
     </g>
     <g id="line2d_18">
      <g>
       <use xlink:href="#m166f40319d" x="69.12" y="199.00111" style="fill: #555555; stroke: #555555; stroke-width: 0.8"/>
      </g>
     </g>
     <g id="text_10">
      <!-- 150 -->
      <g style="fill: #555555" transform="translate(31.58 205.07986)scale(0.16 -0.16)">
       <use xlink:href="#DejaVuSans-31"/>
       <use xlink:href="#DejaVuSans-35" x="63.623047"/>
       <use xlink:href="#DejaVuSans-30" x="127.246094"/>
      </g>
     </g>
    </g>
    <g id="ytick_5">
     <g id="line2d_19">
      <path d="M 69.12 168.82312 
L 414.72 168.82312 
" clip-path="url(#p4627ee26a5)" style="fill: none; stroke: #ffffff; stroke-width: 0.8; stroke-linecap: square"/>
     </g>
     <g id="line2d_20">
      <g>
       <use xlink:href="#m166f40319d" x="69.12" y="168.82312" style="fill: #555555; stroke: #555555; stroke-width: 0.8"/>
      </g>
     </g>
     <g id="text_11">
      <!-- 175 -->
      <g style="fill: #555555" transform="translate(31.58 174.90187)scale(0.16 -0.16)">
       <use xlink:href="#DejaVuSans-31"/>
       <use xlink:href="#DejaVuSans-37" x="63.623047"/>
       <use xlink:href="#DejaVuSans-35" x="127.246094"/>
      </g>
     </g>
    </g>
    <g id="ytick_6">
     <g id="line2d_21">
      <path d="M 69.12 138.645129 
L 414.72 138.645129 
" clip-path="url(#p4627ee26a5)" style="fill: none; stroke: #ffffff; stroke-width: 0.8; stroke-linecap: square"/>
     </g>
     <g id="line2d_22">
      <g>
       <use xlink:href="#m166f40319d" x="69.12" y="138.645129" style="fill: #555555; stroke: #555555; stroke-width: 0.8"/>
      </g>
     </g>
     <g id="text_12">
      <!-- 200 -->
      <g style="fill: #555555" transform="translate(31.58 144.723879)scale(0.16 -0.16)">
       <use xlink:href="#DejaVuSans-32"/>
       <use xlink:href="#DejaVuSans-30" x="63.623047"/>
       <use xlink:href="#DejaVuSans-30" x="127.246094"/>
      </g>
     </g>
    </g>
    <g id="ytick_7">
     <g id="line2d_23">
      <path d="M 69.12 108.467139 
L 414.72 108.467139 
" clip-path="url(#p4627ee26a5)" style="fill: none; stroke: #ffffff; stroke-width: 0.8; stroke-linecap: square"/>
     </g>
     <g id="line2d_24">
      <g>
       <use xlink:href="#m166f40319d" x="69.12" y="108.467139" style="fill: #555555; stroke: #555555; stroke-width: 0.8"/>
      </g>
     </g>
     <g id="text_13">
      <!-- 225 -->
      <g style="fill: #555555" transform="translate(31.58 114.545889)scale(0.16 -0.16)">
       <use xlink:href="#DejaVuSans-32"/>
       <use xlink:href="#DejaVuSans-32" x="63.623047"/>
       <use xlink:href="#DejaVuSans-35" x="127.246094"/>
      </g>
     </g>
    </g>
    <g id="ytick_8">
     <g id="line2d_25">
      <path d="M 69.12 78.289148 
L 414.72 78.289148 
" clip-path="url(#p4627ee26a5)" style="fill: none; stroke: #ffffff; stroke-width: 0.8; stroke-linecap: square"/>
     </g>
     <g id="line2d_26">
      <g>
       <use xlink:href="#m166f40319d" x="69.12" y="78.289148" style="fill: #555555; stroke: #555555; stroke-width: 0.8"/>
      </g>
     </g>
     <g id="text_14">
      <!-- 250 -->
      <g style="fill: #555555" transform="translate(31.58 84.367898)scale(0.16 -0.16)">
       <use xlink:href="#DejaVuSans-32"/>
       <use xlink:href="#DejaVuSans-35" x="63.623047"/>
       <use xlink:href="#DejaVuSans-30" x="127.246094"/>
      </g>
     </g>
    </g>
    <g id="ytick_9">
     <g id="line2d_27">
      <path d="M 69.12 48.111158 
L 414.72 48.111158 
" clip-path="url(#p4627ee26a5)" style="fill: none; stroke: #ffffff; stroke-width: 0.8; stroke-linecap: square"/>
     </g>
     <g id="line2d_28">
      <g>
       <use xlink:href="#m166f40319d" x="69.12" y="48.111158" style="fill: #555555; stroke: #555555; stroke-width: 0.8"/>
      </g>
     </g>
     <g id="text_15">
      <!-- 275 -->
      <g style="fill: #555555" transform="translate(31.58 54.189908)scale(0.16 -0.16)">
       <use xlink:href="#DejaVuSans-32"/>
       <use xlink:href="#DejaVuSans-37" x="63.623047"/>
       <use xlink:href="#DejaVuSans-35" x="127.246094"/>
      </g>
     </g>
    </g>
    <g id="text_16">
     <!-- Edge Cut -->
     <g transform="translate(23.420625 213.2035)rotate(-90)scale(0.2 -0.2)">
      <defs>
       <path id="DejaVuSans-45" d="M 628 4666 
L 3578 4666 
L 3578 4134 
L 1259 4134 
L 1259 2753 
L 3481 2753 
L 3481 2222 
L 1259 2222 
L 1259 531 
L 3634 531 
L 3634 0 
L 628 0 
L 628 4666 
z
" transform="scale(0.015625)"/>
       <path id="DejaVuSans-64" d="M 2906 2969 
L 2906 4863 
L 3481 4863 
L 3481 0 
L 2906 0 
L 2906 525 
Q 2725 213 2448 61 
Q 2172 -91 1784 -91 
Q 1150 -91 751 415 
Q 353 922 353 1747 
Q 353 2572 751 3078 
Q 1150 3584 1784 3584 
Q 2172 3584 2448 3432 
Q 2725 3281 2906 2969 
z
M 947 1747 
Q 947 1113 1208 752 
Q 1469 391 1925 391 
Q 2381 391 2643 752 
Q 2906 1113 2906 1747 
Q 2906 2381 2643 2742 
Q 2381 3103 1925 3103 
Q 1469 3103 1208 2742 
Q 947 2381 947 1747 
z
" transform="scale(0.015625)"/>
       <path id="DejaVuSans-67" d="M 2906 1791 
Q 2906 2416 2648 2759 
Q 2391 3103 1925 3103 
Q 1463 3103 1205 2759 
Q 947 2416 947 1791 
Q 947 1169 1205 825 
Q 1463 481 1925 481 
Q 2391 481 2648 825 
Q 2906 1169 2906 1791 
z
M 3481 434 
Q 3481 -459 3084 -895 
Q 2688 -1331 1869 -1331 
Q 1566 -1331 1297 -1286 
Q 1028 -1241 775 -1147 
L 775 -588 
Q 1028 -725 1275 -790 
Q 1522 -856 1778 -856 
Q 2344 -856 2625 -561 
Q 2906 -266 2906 331 
L 2906 616 
Q 2728 306 2450 153 
Q 2172 0 1784 0 
Q 1141 0 747 490 
Q 353 981 353 1791 
Q 353 2603 747 3093 
Q 1141 3584 1784 3584 
Q 2172 3584 2450 3431 
Q 2728 3278 2906 2969 
L 2906 3500 
L 3481 3500 
L 3481 434 
z
" transform="scale(0.015625)"/>
       <path id="DejaVuSans-43" d="M 4122 4306 
L 4122 3641 
Q 3803 3938 3442 4084 
Q 3081 4231 2675 4231 
Q 1875 4231 1450 3742 
Q 1025 3253 1025 2328 
Q 1025 1406 1450 917 
Q 1875 428 2675 428 
Q 3081 428 3442 575 
Q 3803 722 4122 1019 
L 4122 359 
Q 3791 134 3420 21 
Q 3050 -91 2638 -91 
Q 1578 -91 968 557 
Q 359 1206 359 2328 
Q 359 3453 968 4101 
Q 1578 4750 2638 4750 
Q 3056 4750 3426 4639 
Q 3797 4528 4122 4306 
z
" transform="scale(0.015625)"/>
      </defs>
      <use xlink:href="#DejaVuSans-45"/>
      <use xlink:href="#DejaVuSans-64" x="63.183594"/>
      <use xlink:href="#DejaVuSans-67" x="126.660156"/>
      <use xlink:href="#DejaVuSans-65" x="190.136719"/>
      <use xlink:href="#DejaVuSans-20" x="251.660156"/>
      <use xlink:href="#DejaVuSans-43" x="283.447266"/>
      <use xlink:href="#DejaVuSans-75" x="353.271484"/>
      <use xlink:href="#DejaVuSans-74" x="416.650391"/>
     </g>
    </g>
   </g>
   <g id="line2d_29">
    <path d="M 84.829091 278.671005 
L 119.738182 247.285895 
L 154.647273 232.800459 
L 189.556364 230.38622 
L 224.465455 209.865187 
L 259.374545 225.557742 
L 294.283636 207.450947 
L 329.192727 183.308555 
L 364.101818 192.965512 
L 399.010909 190.551273 
" clip-path="url(#p4627ee26a5)" style="fill: none; stroke-dasharray: 9.6,2.4,1.5,2.4; stroke-dashoffset: 0; stroke: #e24a33; stroke-width: 1.5"/>
    <defs>
     <path id="mede2efada3" d="M -6 6 
L 6 6 
L 6 -6 
L -6 -6 
z
" style="stroke: #e24a33; stroke-linejoin: miter"/>
    </defs>
    <g clip-path="url(#p4627ee26a5)">
     <use xlink:href="#mede2efada3" x="84.829091" y="278.671005" style="fill: #e24a33; stroke: #e24a33; stroke-linejoin: miter"/>
     <use xlink:href="#mede2efada3" x="119.738182" y="247.285895" style="fill: #e24a33; stroke: #e24a33; stroke-linejoin: miter"/>
     <use xlink:href="#mede2efada3" x="154.647273" y="232.800459" style="fill: #e24a33; stroke: #e24a33; stroke-linejoin: miter"/>
     <use xlink:href="#mede2efada3" x="189.556364" y="230.38622" style="fill: #e24a33; stroke: #e24a33; stroke-linejoin: miter"/>
     <use xlink:href="#mede2efada3" x="224.465455" y="209.865187" style="fill: #e24a33; stroke: #e24a33; stroke-linejoin: miter"/>
     <use xlink:href="#mede2efada3" x="259.374545" y="225.557742" style="fill: #e24a33; stroke: #e24a33; stroke-linejoin: miter"/>
     <use xlink:href="#mede2efada3" x="294.283636" y="207.450947" style="fill: #e24a33; stroke: #e24a33; stroke-linejoin: miter"/>
     <use xlink:href="#mede2efada3" x="329.192727" y="183.308555" style="fill: #e24a33; stroke: #e24a33; stroke-linejoin: miter"/>
     <use xlink:href="#mede2efada3" x="364.101818" y="192.965512" style="fill: #e24a33; stroke: #e24a33; stroke-linejoin: miter"/>
     <use xlink:href="#mede2efada3" x="399.010909" y="190.551273" style="fill: #e24a33; stroke: #e24a33; stroke-linejoin: miter"/>
    </g>
   </g>
   <g id="line2d_30">
    <path d="M 84.829091 250.907254 
L 119.738182 155.544804 
L 154.647273 132.609531 
L 189.556364 106.0529 
L 224.465455 108.467139 
L 259.374545 79.496268 
L 294.283636 68.632191 
L 329.192727 75.874909 
L 364.101818 81.910507 
L 399.010909 52.939636 
" clip-path="url(#p4627ee26a5)" style="fill: none; stroke-dasharray: 5.55,2.4; stroke-dashoffset: 0; stroke: #348abd; stroke-width: 1.5"/>
    <defs>
     <path id="ma09041c01d" d="M 0 5.656854 
L 5.656854 0 
L 0 -5.656854 
L -5.656854 0 
z
" style="stroke: #348abd; stroke-linejoin: miter"/>
    </defs>
    <g clip-path="url(#p4627ee26a5)">
     <use xlink:href="#ma09041c01d" x="84.829091" y="250.907254" style="fill: #348abd; stroke: #348abd; stroke-linejoin: miter"/>
     <use xlink:href="#ma09041c01d" x="119.738182" y="155.544804" style="fill: #348abd; stroke: #348abd; stroke-linejoin: miter"/>
     <use xlink:href="#ma09041c01d" x="154.647273" y="132.609531" style="fill: #348abd; stroke: #348abd; stroke-linejoin: miter"/>
     <use xlink:href="#ma09041c01d" x="189.556364" y="106.0529" style="fill: #348abd; stroke: #348abd; stroke-linejoin: miter"/>
     <use xlink:href="#ma09041c01d" x="224.465455" y="108.467139" style="fill: #348abd; stroke: #348abd; stroke-linejoin: miter"/>
     <use xlink:href="#ma09041c01d" x="259.374545" y="79.496268" style="fill: #348abd; stroke: #348abd; stroke-linejoin: miter"/>
     <use xlink:href="#ma09041c01d" x="294.283636" y="68.632191" style="fill: #348abd; stroke: #348abd; stroke-linejoin: miter"/>
     <use xlink:href="#ma09041c01d" x="329.192727" y="75.874909" style="fill: #348abd; stroke: #348abd; stroke-linejoin: miter"/>
     <use xlink:href="#ma09041c01d" x="364.101818" y="81.910507" style="fill: #348abd; stroke: #348abd; stroke-linejoin: miter"/>
     <use xlink:href="#ma09041c01d" x="399.010909" y="52.939636" style="fill: #348abd; stroke: #348abd; stroke-linejoin: miter"/>
    </g>
   </g>
   <g id="line2d_31">
    <path d="M 84.829091 282.292364 
L 119.738182 214.693665 
L 154.647273 209.865187 
L 189.556364 184.515675 
L 224.465455 170.030239 
L 259.374545 160.373282 
L 294.283636 153.130565 
L 329.192727 132.609531 
L 364.101818 138.645129 
L 399.010909 133.816651 
" clip-path="url(#p4627ee26a5)" style="fill: none; stroke-dasharray: 1.5,2.475; stroke-dashoffset: 0; stroke: #988ed5; stroke-width: 1.5"/>
    <defs>
     <path id="mc411d7608c" d="M 0 -4 
L -4 4 
L 4 4 
z
" style="stroke: #988ed5; stroke-linejoin: miter"/>
    </defs>
    <g clip-path="url(#p4627ee26a5)">
     <use xlink:href="#mc411d7608c" x="84.829091" y="282.292364" style="fill: #988ed5; stroke: #988ed5; stroke-linejoin: miter"/>
     <use xlink:href="#mc411d7608c" x="119.738182" y="214.693665" style="fill: #988ed5; stroke: #988ed5; stroke-linejoin: miter"/>
     <use xlink:href="#mc411d7608c" x="154.647273" y="209.865187" style="fill: #988ed5; stroke: #988ed5; stroke-linejoin: miter"/>
     <use xlink:href="#mc411d7608c" x="189.556364" y="184.515675" style="fill: #988ed5; stroke: #988ed5; stroke-linejoin: miter"/>
     <use xlink:href="#mc411d7608c" x="224.465455" y="170.030239" style="fill: #988ed5; stroke: #988ed5; stroke-linejoin: miter"/>
     <use xlink:href="#mc411d7608c" x="259.374545" y="160.373282" style="fill: #988ed5; stroke: #988ed5; stroke-linejoin: miter"/>
     <use xlink:href="#mc411d7608c" x="294.283636" y="153.130565" style="fill: #988ed5; stroke: #988ed5; stroke-linejoin: miter"/>
     <use xlink:href="#mc411d7608c" x="329.192727" y="132.609531" style="fill: #988ed5; stroke: #988ed5; stroke-linejoin: miter"/>
     <use xlink:href="#mc411d7608c" x="364.101818" y="138.645129" style="fill: #988ed5; stroke: #988ed5; stroke-linejoin: miter"/>
     <use xlink:href="#mc411d7608c" x="399.010909" y="133.816651" style="fill: #988ed5; stroke: #988ed5; stroke-linejoin: miter"/>
    </g>
   </g>
   <g id="line2d_32">
    <path d="M 84.829091 166.40888 
L 119.738182 121.745455 
L 154.647273 121.745455 
L 189.556364 167.616 
L 224.465455 119.331215 
L 259.374545 77.082029 
L 294.283636 121.745455 
L 329.192727 160.373282 
L 364.101818 128.988172 
L 399.010909 121.745455 
" clip-path="url(#p4627ee26a5)" style="fill: none; stroke-dasharray: 5.55,2.4; stroke-dashoffset: 0; stroke: #777777; stroke-width: 1.5"/>
    <defs>
     <path id="mfaa6414a9f" d="M -2 -3.464102 
L -4 -0 
L -2 3.464102 
L 2 3.464102 
L 4 0 
L 2 -3.464102 
z
" style="stroke: #777777; stroke-linejoin: miter"/>
    </defs>
    <g clip-path="url(#p4627ee26a5)">
     <use xlink:href="#mfaa6414a9f" x="84.829091" y="166.40888" style="fill: #777777; stroke: #777777; stroke-linejoin: miter"/>
     <use xlink:href="#mfaa6414a9f" x="119.738182" y="121.745455" style="fill: #777777; stroke: #777777; stroke-linejoin: miter"/>
     <use xlink:href="#mfaa6414a9f" x="154.647273" y="121.745455" style="fill: #777777; stroke: #777777; stroke-linejoin: miter"/>
     <use xlink:href="#mfaa6414a9f" x="189.556364" y="167.616" style="fill: #777777; stroke: #777777; stroke-linejoin: miter"/>
     <use xlink:href="#mfaa6414a9f" x="224.465455" y="119.331215" style="fill: #777777; stroke: #777777; stroke-linejoin: miter"/>
     <use xlink:href="#mfaa6414a9f" x="259.374545" y="77.082029" style="fill: #777777; stroke: #777777; stroke-linejoin: miter"/>
     <use xlink:href="#mfaa6414a9f" x="294.283636" y="121.745455" style="fill: #777777; stroke: #777777; stroke-linejoin: miter"/>
     <use xlink:href="#mfaa6414a9f" x="329.192727" y="160.373282" style="fill: #777777; stroke: #777777; stroke-linejoin: miter"/>
     <use xlink:href="#mfaa6414a9f" x="364.101818" y="128.988172" style="fill: #777777; stroke: #777777; stroke-linejoin: miter"/>
     <use xlink:href="#mfaa6414a9f" x="399.010909" y="121.745455" style="fill: #777777; stroke: #777777; stroke-linejoin: miter"/>
    </g>
   </g>
   <g id="line2d_33">
    <path d="M 84.829091 282.292364 
L 119.738182 261.77133 
L 154.647273 252.114373 
L 189.556364 209.865187 
L 224.465455 230.38622 
L 259.374545 211.072306 
L 294.283636 208.658067 
L 329.192727 185.722794 
L 364.101818 199.00111 
L 399.010909 209.865187 
" clip-path="url(#p4627ee26a5)" style="fill: none; stroke-dasharray: 5.55,2.4; stroke-dashoffset: 0; stroke: #fbc15e; stroke-width: 1.5"/>
    <defs>
     <path id="m2497aa597f" d="M 4 0 
L -4 -4 
L -4 4 
z
" style="stroke: #fbc15e; stroke-linejoin: miter"/>
    </defs>
    <g clip-path="url(#p4627ee26a5)">
     <use xlink:href="#m2497aa597f" x="84.829091" y="282.292364" style="fill: #fbc15e; stroke: #fbc15e; stroke-linejoin: miter"/>
     <use xlink:href="#m2497aa597f" x="119.738182" y="261.77133" style="fill: #fbc15e; stroke: #fbc15e; stroke-linejoin: miter"/>
     <use xlink:href="#m2497aa597f" x="154.647273" y="252.114373" style="fill: #fbc15e; stroke: #fbc15e; stroke-linejoin: miter"/>
     <use xlink:href="#m2497aa597f" x="189.556364" y="209.865187" style="fill: #fbc15e; stroke: #fbc15e; stroke-linejoin: miter"/>
     <use xlink:href="#m2497aa597f" x="224.465455" y="230.38622" style="fill: #fbc15e; stroke: #fbc15e; stroke-linejoin: miter"/>
     <use xlink:href="#m2497aa597f" x="259.374545" y="211.072306" style="fill: #fbc15e; stroke: #fbc15e; stroke-linejoin: miter"/>
     <use xlink:href="#m2497aa597f" x="294.283636" y="208.658067" style="fill: #fbc15e; stroke: #fbc15e; stroke-linejoin: miter"/>
     <use xlink:href="#m2497aa597f" x="329.192727" y="185.722794" style="fill: #fbc15e; stroke: #fbc15e; stroke-linejoin: miter"/>
     <use xlink:href="#m2497aa597f" x="364.101818" y="199.00111" style="fill: #fbc15e; stroke: #fbc15e; stroke-linejoin: miter"/>
     <use xlink:href="#m2497aa597f" x="399.010909" y="209.865187" style="fill: #fbc15e; stroke: #fbc15e; stroke-linejoin: miter"/>
    </g>
   </g>
   <g id="patch_3">
    <path d="M 69.12 293.76 
L 69.12 41.472 
" style="fill: none; stroke: #ffffff; stroke-linejoin: miter; stroke-linecap: square"/>
   </g>
   <g id="patch_4">
    <path d="M 414.72 293.76 
L 414.72 41.472 
" style="fill: none; stroke: #ffffff; stroke-linejoin: miter; stroke-linecap: square"/>
   </g>
   <g id="patch_5">
    <path d="M 69.12 293.76 
L 414.72 293.76 
" style="fill: none; stroke: #ffffff; stroke-linejoin: miter; stroke-linecap: square"/>
   </g>
   <g id="patch_6">
    <path d="M 69.12 41.472 
L 414.72 41.472 
" style="fill: none; stroke: #ffffff; stroke-linejoin: miter; stroke-linecap: square"/>
   </g>
   <g id="text_17">
    <!-- Fat-Tree, k=8 -->
    <g transform="translate(176.623125 35.472)scale(0.2 -0.2)">
     <defs>
      <path id="DejaVuSans-46" d="M 628 4666 
L 3309 4666 
L 3309 4134 
L 1259 4134 
L 1259 2759 
L 3109 2759 
L 3109 2228 
L 1259 2228 
L 1259 0 
L 628 0 
L 628 4666 
z
" transform="scale(0.015625)"/>
      <path id="DejaVuSans-2d" d="M 313 2009 
L 1997 2009 
L 1997 1497 
L 313 1497 
L 313 2009 
z
" transform="scale(0.015625)"/>
      <path id="DejaVuSans-54" d="M -19 4666 
L 3928 4666 
L 3928 4134 
L 2272 4134 
L 2272 0 
L 1638 0 
L 1638 4134 
L -19 4134 
L -19 4666 
z
" transform="scale(0.015625)"/>
      <path id="DejaVuSans-2c" d="M 750 794 
L 1409 794 
L 1409 256 
L 897 -744 
L 494 -744 
L 750 256 
L 750 794 
z
" transform="scale(0.015625)"/>
      <path id="DejaVuSans-6b" d="M 581 4863 
L 1159 4863 
L 1159 1991 
L 2875 3500 
L 3609 3500 
L 1753 1863 
L 3688 0 
L 2938 0 
L 1159 1709 
L 1159 0 
L 581 0 
L 581 4863 
z
" transform="scale(0.015625)"/>
      <path id="DejaVuSans-3d" d="M 678 2906 
L 4684 2906 
L 4684 2381 
L 678 2381 
L 678 2906 
z
M 678 1631 
L 4684 1631 
L 4684 1100 
L 678 1100 
L 678 1631 
z
" transform="scale(0.015625)"/>
     </defs>
     <use xlink:href="#DejaVuSans-46"/>
     <use xlink:href="#DejaVuSans-61" x="48.394531"/>
     <use xlink:href="#DejaVuSans-74" x="109.673828"/>
     <use xlink:href="#DejaVuSans-2d" x="148.882812"/>
     <use xlink:href="#DejaVuSans-54" x="175.841797"/>
     <use xlink:href="#DejaVuSans-72" x="222.175781"/>
     <use xlink:href="#DejaVuSans-65" x="261.039062"/>
     <use xlink:href="#DejaVuSans-65" x="322.5625"/>
     <use xlink:href="#DejaVuSans-2c" x="384.085938"/>
     <use xlink:href="#DejaVuSans-20" x="415.873047"/>
     <use xlink:href="#DejaVuSans-6b" x="447.660156"/>
     <use xlink:href="#DejaVuSans-3d" x="505.570312"/>
     <use xlink:href="#DejaVuSans-38" x="589.359375"/>
    </g>
   </g>
   <g id="legend_1">
    <g id="patch_7">
     <path d="M 190.795 288.76 
L 407.72 288.76 
Q 409.72 288.76 409.72 286.76 
L 409.72 258.40375 
Q 409.72 256.40375 407.72 256.40375 
L 190.795 256.40375 
Q 188.795 256.40375 188.795 258.40375 
L 188.795 286.76 
Q 188.795 288.76 190.795 288.76 
z
" style="fill: #e5e5e5; opacity: 0.8; stroke: #cccccc; stroke-width: 0.5; stroke-linejoin: miter"/>
    </g>
    <g id="line2d_34">
     <path d="M 192.795 264.502187 
L 202.795 264.502187 
L 212.795 264.502187 
" style="fill: none; stroke-dasharray: 9.6,2.4,1.5,2.4; stroke-dashoffset: 0; stroke: #e24a33; stroke-width: 1.5"/>
     <g>
      <use xlink:href="#mede2efada3" x="202.795" y="264.502187" style="fill: #e24a33; stroke: #e24a33; stroke-linejoin: miter"/>
     </g>
    </g>
    <g id="text_18">
     <!-- AC -->
     <g transform="translate(220.795 268.002187)scale(0.1 -0.1)">
      <defs>
       <path id="DejaVuSans-41" d="M 2188 4044 
L 1331 1722 
L 3047 1722 
L 2188 4044 
z
M 1831 4666 
L 2547 4666 
L 4325 0 
L 3669 0 
L 3244 1197 
L 1141 1197 
L 716 0 
L 50 0 
L 1831 4666 
z
" transform="scale(0.015625)"/>
      </defs>
      <use xlink:href="#DejaVuSans-41"/>
      <use xlink:href="#DejaVuSans-43" x="66.658203"/>
     </g>
    </g>
    <g id="line2d_35">
     <path d="M 192.795 279.180312 
L 202.795 279.180312 
L 212.795 279.180312 
" style="fill: none; stroke-dasharray: 5.55,2.4; stroke-dashoffset: 0; stroke: #348abd; stroke-width: 1.5"/>
     <g>
      <use xlink:href="#ma09041c01d" x="202.795" y="279.180312" style="fill: #348abd; stroke: #348abd; stroke-linejoin: miter"/>
     </g>
    </g>
    <g id="text_19">
     <!-- DBH -->
     <g transform="translate(220.795 282.680312)scale(0.1 -0.1)">
      <defs>
       <path id="DejaVuSans-44" d="M 1259 4147 
L 1259 519 
L 2022 519 
Q 2988 519 3436 956 
Q 3884 1394 3884 2338 
Q 3884 3275 3436 3711 
Q 2988 4147 2022 4147 
L 1259 4147 
z
M 628 4666 
L 1925 4666 
Q 3281 4666 3915 4102 
Q 4550 3538 4550 2338 
Q 4550 1131 3912 565 
Q 3275 0 1925 0 
L 628 0 
L 628 4666 
z
" transform="scale(0.015625)"/>
       <path id="DejaVuSans-42" d="M 1259 2228 
L 1259 519 
L 2272 519 
Q 2781 519 3026 730 
Q 3272 941 3272 1375 
Q 3272 1813 3026 2020 
Q 2781 2228 2272 2228 
L 1259 2228 
z
M 1259 4147 
L 1259 2741 
L 2194 2741 
Q 2656 2741 2882 2914 
Q 3109 3088 3109 3444 
Q 3109 3797 2882 3972 
Q 2656 4147 2194 4147 
L 1259 4147 
z
M 628 4666 
L 2241 4666 
Q 2963 4666 3353 4366 
Q 3744 4066 3744 3513 
Q 3744 3084 3544 2831 
Q 3344 2578 2956 2516 
Q 3422 2416 3680 2098 
Q 3938 1781 3938 1306 
Q 3938 681 3513 340 
Q 3088 0 2303 0 
L 628 0 
L 628 4666 
z
" transform="scale(0.015625)"/>
       <path id="DejaVuSans-48" d="M 628 4666 
L 1259 4666 
L 1259 2753 
L 3553 2753 
L 3553 4666 
L 4184 4666 
L 4184 0 
L 3553 0 
L 3553 2222 
L 1259 2222 
L 1259 0 
L 628 0 
L 628 4666 
z
" transform="scale(0.015625)"/>
      </defs>
      <use xlink:href="#DejaVuSans-44"/>
      <use xlink:href="#DejaVuSans-42" x="77.001953"/>
      <use xlink:href="#DejaVuSans-48" x="145.605469"/>
     </g>
    </g>
    <g id="line2d_36">
     <path d="M 262.87625 264.502187 
L 272.87625 264.502187 
L 282.87625 264.502187 
" style="fill: none; stroke-dasharray: 1.5,2.475; stroke-dashoffset: 0; stroke: #988ed5; stroke-width: 1.5"/>
     <g>
      <use xlink:href="#mc411d7608c" x="272.87625" y="264.502187" style="fill: #988ed5; stroke: #988ed5; stroke-linejoin: miter"/>
     </g>
    </g>
    <g id="text_20">
     <!-- HDRF -->
     <g transform="translate(290.87625 268.002187)scale(0.1 -0.1)">
      <defs>
       <path id="DejaVuSans-52" d="M 2841 2188 
Q 3044 2119 3236 1894 
Q 3428 1669 3622 1275 
L 4263 0 
L 3584 0 
L 2988 1197 
Q 2756 1666 2539 1819 
Q 2322 1972 1947 1972 
L 1259 1972 
L 1259 0 
L 628 0 
L 628 4666 
L 2053 4666 
Q 2853 4666 3247 4331 
Q 3641 3997 3641 3322 
Q 3641 2881 3436 2590 
Q 3231 2300 2841 2188 
z
M 1259 4147 
L 1259 2491 
L 2053 2491 
Q 2509 2491 2742 2702 
Q 2975 2913 2975 3322 
Q 2975 3731 2742 3939 
Q 2509 4147 2053 4147 
L 1259 4147 
z
" transform="scale(0.015625)"/>
      </defs>
      <use xlink:href="#DejaVuSans-48"/>
      <use xlink:href="#DejaVuSans-44" x="75.195312"/>
      <use xlink:href="#DejaVuSans-52" x="152.197266"/>
      <use xlink:href="#DejaVuSans-46" x="221.679688"/>
     </g>
    </g>
    <g id="line2d_37">
     <path d="M 262.87625 279.180312 
L 272.87625 279.180312 
L 282.87625 279.180312 
" style="fill: none; stroke-dasharray: 5.55,2.4; stroke-dashoffset: 0; stroke: #777777; stroke-width: 1.5"/>
     <g>
      <use xlink:href="#mfaa6414a9f" x="272.87625" y="279.180312" style="fill: #777777; stroke: #777777; stroke-linejoin: miter"/>
     </g>
    </g>
    <g id="text_21">
     <!-- LDG -->
     <g transform="translate(290.87625 282.680312)scale(0.1 -0.1)">
      <defs>
       <path id="DejaVuSans-4c" d="M 628 4666 
L 1259 4666 
L 1259 531 
L 3531 531 
L 3531 0 
L 628 0 
L 628 4666 
z
" transform="scale(0.015625)"/>
       <path id="DejaVuSans-47" d="M 3809 666 
L 3809 1919 
L 2778 1919 
L 2778 2438 
L 4434 2438 
L 4434 434 
Q 4069 175 3628 42 
Q 3188 -91 2688 -91 
Q 1594 -91 976 548 
Q 359 1188 359 2328 
Q 359 3472 976 4111 
Q 1594 4750 2688 4750 
Q 3144 4750 3555 4637 
Q 3966 4525 4313 4306 
L 4313 3634 
Q 3963 3931 3569 4081 
Q 3175 4231 2741 4231 
Q 1884 4231 1454 3753 
Q 1025 3275 1025 2328 
Q 1025 1384 1454 906 
Q 1884 428 2741 428 
Q 3075 428 3337 486 
Q 3600 544 3809 666 
z
" transform="scale(0.015625)"/>
      </defs>
      <use xlink:href="#DejaVuSans-4c"/>
      <use xlink:href="#DejaVuSans-44" x="55.712891"/>
      <use xlink:href="#DejaVuSans-47" x="132.714844"/>
     </g>
    </g>
    <g id="line2d_38">
     <path d="M 338.796563 264.502187 
L 348.796563 264.502187 
L 358.796563 264.502187 
" style="fill: none; stroke-dasharray: 5.55,2.4; stroke-dashoffset: 0; stroke: #fbc15e; stroke-width: 1.5"/>
     <g>
      <use xlink:href="#m2497aa597f" x="348.796563" y="264.502187" style="fill: #fbc15e; stroke: #fbc15e; stroke-linejoin: miter"/>
     </g>
    </g>
    <g id="text_22">
     <!-- FENNEL -->
     <g transform="translate(366.796563 268.002187)scale(0.1 -0.1)">
      <use xlink:href="#DejaVuSans-46"/>
      <use xlink:href="#DejaVuSans-45" x="57.519531"/>
      <use xlink:href="#DejaVuSans-4e" x="120.703125"/>
      <use xlink:href="#DejaVuSans-4e" x="195.507812"/>
      <use xlink:href="#DejaVuSans-45" x="270.3125"/>
      <use xlink:href="#DejaVuSans-4c" x="333.496094"/>
     </g>
    </g>
   </g>
  </g>
 </g>
 <defs>
  <clipPath id="p4627ee26a5">
   <rect x="69.12" y="41.472" width="345.6" height="252.288"/>
  </clipPath>
 </defs>
</svg>
