<?xml version="1.0" encoding="utf-8" standalone="no"?>
<!DOCTYPE svg PUBLIC "-//W3C//DTD SVG 1.1//EN"
  "http://www.w3.org/Graphics/SVG/1.1/DTD/svg11.dtd">
<svg xmlns:xlink="http://www.w3.org/1999/xlink" width="460.8pt" height="345.6pt" viewBox="0 0 460.8 345.6" xmlns="http://www.w3.org/2000/svg" version="1.1">
 <metadata>
  <rdf:RDF xmlns:dc="http://purl.org/dc/elements/1.1/" xmlns:cc="http://creativecommons.org/ns#" xmlns:rdf="http://www.w3.org/1999/02/22-rdf-syntax-ns#">
   <cc:Work>
    <dc:type rdf:resource="http://purl.org/dc/dcmitype/StillImage"/>
    <dc:date>2022-08-01T21:46:52.996056</dc:date>
    <dc:format>image/svg+xml</dc:format>
    <dc:creator>
     <cc:Agent>
      <dc:title>Matplotlib v3.5.1, https://matplotlib.org/</dc:title>
     </cc:Agent>
    </dc:creator>
   </cc:Work>
  </rdf:RDF>
 </metadata>
 <defs>
  <style type="text/css">*{stroke-linejoin: round; stroke-linecap: butt}</style>
 </defs>
 <g id="figure_1">
  <g id="patch_1">
   <path d="M 0 345.6 
L 460.8 345.6 
L 460.8 0 
L 0 0 
z
" style="fill: #ffffff"/>
  </g>
  <g id="axes_1">
   <g id="patch_2">
    <path d="M 69.12 293.76 
L 414.72 293.76 
L 414.72 41.472 
L 69.12 41.472 
z
" style="fill: #e5e5e5"/>
   </g>
   <g id="matplotlib.axis_1">
    <g id="xtick_1">
     <g id="line2d_1">
      <path d="M 84.829091 293.76 
L 84.829091 41.472 
" clip-path="url(#pdf024f70ad)" style="fill: none; stroke: #ffffff; stroke-width: 0.8; stroke-linecap: square"/>
     </g>
     <g id="line2d_2">
      <defs>
       <path id="m7050852fae" d="M 0 0 
L 0 3.5 
" style="stroke: #555555; stroke-width: 0.8"/>
      </defs>
      <g>
       <use xlink:href="#m7050852fae" x="84.829091" y="293.76" style="fill: #555555; stroke: #555555; stroke-width: 0.8"/>
      </g>
     </g>
     <g id="text_1">
      <!-- 2 -->
      <g style="fill: #555555" transform="translate(79.739091 312.9175)scale(0.16 -0.16)">
       <defs>
        <path id="DejaVuSans-32" d="M 1228 531 
L 3431 531 
L 3431 0 
L 469 0 
L 469 531 
Q 828 903 1448 1529 
Q 2069 2156 2228 2338 
Q 2531 2678 2651 2914 
Q 2772 3150 2772 3378 
Q 2772 3750 2511 3984 
Q 2250 4219 1831 4219 
Q 1534 4219 1204 4116 
Q 875 4013 500 3803 
L 500 4441 
Q 881 4594 1212 4672 
Q 1544 4750 1819 4750 
Q 2544 4750 2975 4387 
Q 3406 4025 3406 3419 
Q 3406 3131 3298 2873 
Q 3191 2616 2906 2266 
Q 2828 2175 2409 1742 
Q 1991 1309 1228 531 
z
" transform="scale(0.015625)"/>
       </defs>
       <use xlink:href="#DejaVuSans-32"/>
      </g>
     </g>
    </g>
    <g id="xtick_2">
     <g id="line2d_3">
      <path d="M 129.712208 293.76 
L 129.712208 41.472 
" clip-path="url(#pdf024f70ad)" style="fill: none; stroke: #ffffff; stroke-width: 0.8; stroke-linecap: square"/>
     </g>
     <g id="line2d_4">
      <g>
       <use xlink:href="#m7050852fae" x="129.712208" y="293.76" style="fill: #555555; stroke: #555555; stroke-width: 0.8"/>
      </g>
     </g>
     <g id="text_2">
      <!-- 4 -->
      <g style="fill: #555555" transform="translate(124.622208 312.9175)scale(0.16 -0.16)">
       <defs>
        <path id="DejaVuSans-34" d="M 2419 4116 
L 825 1625 
L 2419 1625 
L 2419 4116 
z
M 2253 4666 
L 3047 4666 
L 3047 1625 
L 3713 1625 
L 3713 1100 
L 3047 1100 
L 3047 0 
L 2419 0 
L 2419 1100 
L 313 1100 
L 313 1709 
L 2253 4666 
z
" transform="scale(0.015625)"/>
       </defs>
       <use xlink:href="#DejaVuSans-34"/>
      </g>
     </g>
    </g>
    <g id="xtick_3">
     <g id="line2d_5">
      <path d="M 174.595325 293.76 
L 174.595325 41.472 
" clip-path="url(#pdf024f70ad)" style="fill: none; stroke: #ffffff; stroke-width: 0.8; stroke-linecap: square"/>
     </g>
     <g id="line2d_6">
      <g>
       <use xlink:href="#m7050852fae" x="174.595325" y="293.76" style="fill: #555555; stroke: #555555; stroke-width: 0.8"/>
      </g>
     </g>
     <g id="text_3">
      <!-- 6 -->
      <g style="fill: #555555" transform="translate(169.505325 312.9175)scale(0.16 -0.16)">
       <defs>
        <path id="DejaVuSans-36" d="M 2113 2584 
Q 1688 2584 1439 2293 
Q 1191 2003 1191 1497 
Q 1191 994 1439 701 
Q 1688 409 2113 409 
Q 2538 409 2786 701 
Q 3034 994 3034 1497 
Q 3034 2003 2786 2293 
Q 2538 2584 2113 2584 
z
M 3366 4563 
L 3366 3988 
Q 3128 4100 2886 4159 
Q 2644 4219 2406 4219 
Q 1781 4219 1451 3797 
Q 1122 3375 1075 2522 
Q 1259 2794 1537 2939 
Q 1816 3084 2150 3084 
Q 2853 3084 3261 2657 
Q 3669 2231 3669 1497 
Q 3669 778 3244 343 
Q 2819 -91 2113 -91 
Q 1303 -91 875 529 
Q 447 1150 447 2328 
Q 447 3434 972 4092 
Q 1497 4750 2381 4750 
Q 2619 4750 2861 4703 
Q 3103 4656 3366 4563 
z
" transform="scale(0.015625)"/>
       </defs>
       <use xlink:href="#DejaVuSans-36"/>
      </g>
     </g>
    </g>
    <g id="xtick_4">
     <g id="line2d_7">
      <path d="M 219.478442 293.76 
L 219.478442 41.472 
" clip-path="url(#pdf024f70ad)" style="fill: none; stroke: #ffffff; stroke-width: 0.8; stroke-linecap: square"/>
     </g>
     <g id="line2d_8">
      <g>
       <use xlink:href="#m7050852fae" x="219.478442" y="293.76" style="fill: #555555; stroke: #555555; stroke-width: 0.8"/>
      </g>
     </g>
     <g id="text_4">
      <!-- 8 -->
      <g style="fill: #555555" transform="translate(214.388442 312.9175)scale(0.16 -0.16)">
       <defs>
        <path id="DejaVuSans-38" d="M 2034 2216 
Q 1584 2216 1326 1975 
Q 1069 1734 1069 1313 
Q 1069 891 1326 650 
Q 1584 409 2034 409 
Q 2484 409 2743 651 
Q 3003 894 3003 1313 
Q 3003 1734 2745 1975 
Q 2488 2216 2034 2216 
z
M 1403 2484 
Q 997 2584 770 2862 
Q 544 3141 544 3541 
Q 544 4100 942 4425 
Q 1341 4750 2034 4750 
Q 2731 4750 3128 4425 
Q 3525 4100 3525 3541 
Q 3525 3141 3298 2862 
Q 3072 2584 2669 2484 
Q 3125 2378 3379 2068 
Q 3634 1759 3634 1313 
Q 3634 634 3220 271 
Q 2806 -91 2034 -91 
Q 1263 -91 848 271 
Q 434 634 434 1313 
Q 434 1759 690 2068 
Q 947 2378 1403 2484 
z
M 1172 3481 
Q 1172 3119 1398 2916 
Q 1625 2713 2034 2713 
Q 2441 2713 2670 2916 
Q 2900 3119 2900 3481 
Q 2900 3844 2670 4047 
Q 2441 4250 2034 4250 
Q 1625 4250 1398 4047 
Q 1172 3844 1172 3481 
z
" transform="scale(0.015625)"/>
       </defs>
       <use xlink:href="#DejaVuSans-38"/>
      </g>
     </g>
    </g>
    <g id="xtick_5">
     <g id="line2d_9">
      <path d="M 264.361558 293.76 
L 264.361558 41.472 
" clip-path="url(#pdf024f70ad)" style="fill: none; stroke: #ffffff; stroke-width: 0.8; stroke-linecap: square"/>
     </g>
     <g id="line2d_10">
      <g>
       <use xlink:href="#m7050852fae" x="264.361558" y="293.76" style="fill: #555555; stroke: #555555; stroke-width: 0.8"/>
      </g>
     </g>
     <g id="text_5">
      <!-- 10 -->
      <g style="fill: #555555" transform="translate(254.181558 312.9175)scale(0.16 -0.16)">
       <defs>
        <path id="DejaVuSans-31" d="M 794 531 
L 1825 531 
L 1825 4091 
L 703 3866 
L 703 4441 
L 1819 4666 
L 2450 4666 
L 2450 531 
L 3481 531 
L 3481 0 
L 794 0 
L 794 531 
z
" transform="scale(0.015625)"/>
        <path id="DejaVuSans-30" d="M 2034 4250 
Q 1547 4250 1301 3770 
Q 1056 3291 1056 2328 
Q 1056 1369 1301 889 
Q 1547 409 2034 409 
Q 2525 409 2770 889 
Q 3016 1369 3016 2328 
Q 3016 3291 2770 3770 
Q 2525 4250 2034 4250 
z
M 2034 4750 
Q 2819 4750 3233 4129 
Q 3647 3509 3647 2328 
Q 3647 1150 3233 529 
Q 2819 -91 2034 -91 
Q 1250 -91 836 529 
Q 422 1150 422 2328 
Q 422 3509 836 4129 
Q 1250 4750 2034 4750 
z
" transform="scale(0.015625)"/>
       </defs>
       <use xlink:href="#DejaVuSans-31"/>
       <use xlink:href="#DejaVuSans-30" x="63.623047"/>
      </g>
     </g>
    </g>
    <g id="xtick_6">
     <g id="line2d_11">
      <path d="M 309.244675 293.76 
L 309.244675 41.472 
" clip-path="url(#pdf024f70ad)" style="fill: none; stroke: #ffffff; stroke-width: 0.8; stroke-linecap: square"/>
     </g>
     <g id="line2d_12">
      <g>
       <use xlink:href="#m7050852fae" x="309.244675" y="293.76" style="fill: #555555; stroke: #555555; stroke-width: 0.8"/>
      </g>
     </g>
     <g id="text_6">
      <!-- 12 -->
      <g style="fill: #555555" transform="translate(299.064675 312.9175)scale(0.16 -0.16)">
       <use xlink:href="#DejaVuSans-31"/>
       <use xlink:href="#DejaVuSans-32" x="63.623047"/>
      </g>
     </g>
    </g>
    <g id="xtick_7">
     <g id="line2d_13">
      <path d="M 354.127792 293.76 
L 354.127792 41.472 
" clip-path="url(#pdf024f70ad)" style="fill: none; stroke: #ffffff; stroke-width: 0.8; stroke-linecap: square"/>
     </g>
     <g id="line2d_14">
      <g>
       <use xlink:href="#m7050852fae" x="354.127792" y="293.76" style="fill: #555555; stroke: #555555; stroke-width: 0.8"/>
      </g>
     </g>
     <g id="text_7">
      <!-- 14 -->
      <g style="fill: #555555" transform="translate(343.947792 312.9175)scale(0.16 -0.16)">
       <use xlink:href="#DejaVuSans-31"/>
       <use xlink:href="#DejaVuSans-34" x="63.623047"/>
      </g>
     </g>
    </g>
    <g id="xtick_8">
     <g id="line2d_15">
      <path d="M 399.010909 293.76 
L 399.010909 41.472 
" clip-path="url(#pdf024f70ad)" style="fill: none; stroke: #ffffff; stroke-width: 0.8; stroke-linecap: square"/>
     </g>
     <g id="line2d_16">
      <g>
       <use xlink:href="#m7050852fae" x="399.010909" y="293.76" style="fill: #555555; stroke: #555555; stroke-width: 0.8"/>
      </g>
     </g>
     <g id="text_8">
      <!-- 16 -->
      <g style="fill: #555555" transform="translate(388.830909 312.9175)scale(0.16 -0.16)">
       <use xlink:href="#DejaVuSans-31"/>
       <use xlink:href="#DejaVuSans-36" x="63.623047"/>
      </g>
     </g>
    </g>
    <g id="text_9">
     <!-- Partition Number -->
     <g transform="translate(156.898125 335.441875)scale(0.2 -0.2)">
      <defs>
       <path id="DejaVuSans-50" d="M 1259 4147 
L 1259 2394 
L 2053 2394 
Q 2494 2394 2734 2622 
Q 2975 2850 2975 3272 
Q 2975 3691 2734 3919 
Q 2494 4147 2053 4147 
L 1259 4147 
z
M 628 4666 
L 2053 4666 
Q 2838 4666 3239 4311 
Q 3641 3956 3641 3272 
Q 3641 2581 3239 2228 
Q 2838 1875 2053 1875 
L 1259 1875 
L 1259 0 
L 628 0 
L 628 4666 
z
" transform="scale(0.015625)"/>
       <path id="DejaVuSans-61" d="M 2194 1759 
Q 1497 1759 1228 1600 
Q 959 1441 959 1056 
Q 959 750 1161 570 
Q 1363 391 1709 391 
Q 2188 391 2477 730 
Q 2766 1069 2766 1631 
L 2766 1759 
L 2194 1759 
z
M 3341 1997 
L 3341 0 
L 2766 0 
L 2766 531 
Q 2569 213 2275 61 
Q 1981 -91 1556 -91 
Q 1019 -91 701 211 
Q 384 513 384 1019 
Q 384 1609 779 1909 
Q 1175 2209 1959 2209 
L 2766 2209 
L 2766 2266 
Q 2766 2663 2505 2880 
Q 2244 3097 1772 3097 
Q 1472 3097 1187 3025 
Q 903 2953 641 2809 
L 641 3341 
Q 956 3463 1253 3523 
Q 1550 3584 1831 3584 
Q 2591 3584 2966 3190 
Q 3341 2797 3341 1997 
z
" transform="scale(0.015625)"/>
       <path id="DejaVuSans-72" d="M 2631 2963 
Q 2534 3019 2420 3045 
Q 2306 3072 2169 3072 
Q 1681 3072 1420 2755 
Q 1159 2438 1159 1844 
L 1159 0 
L 581 0 
L 581 3500 
L 1159 3500 
L 1159 2956 
Q 1341 3275 1631 3429 
Q 1922 3584 2338 3584 
Q 2397 3584 2469 3576 
Q 2541 3569 2628 3553 
L 2631 2963 
z
" transform="scale(0.015625)"/>
       <path id="DejaVuSans-74" d="M 1172 4494 
L 1172 3500 
L 2356 3500 
L 2356 3053 
L 1172 3053 
L 1172 1153 
Q 1172 725 1289 603 
Q 1406 481 1766 481 
L 2356 481 
L 2356 0 
L 1766 0 
Q 1100 0 847 248 
Q 594 497 594 1153 
L 594 3053 
L 172 3053 
L 172 3500 
L 594 3500 
L 594 4494 
L 1172 4494 
z
" transform="scale(0.015625)"/>
       <path id="DejaVuSans-69" d="M 603 3500 
L 1178 3500 
L 1178 0 
L 603 0 
L 603 3500 
z
M 603 4863 
L 1178 4863 
L 1178 4134 
L 603 4134 
L 603 4863 
z
" transform="scale(0.015625)"/>
       <path id="DejaVuSans-6f" d="M 1959 3097 
Q 1497 3097 1228 2736 
Q 959 2375 959 1747 
Q 959 1119 1226 758 
Q 1494 397 1959 397 
Q 2419 397 2687 759 
Q 2956 1122 2956 1747 
Q 2956 2369 2687 2733 
Q 2419 3097 1959 3097 
z
M 1959 3584 
Q 2709 3584 3137 3096 
Q 3566 2609 3566 1747 
Q 3566 888 3137 398 
Q 2709 -91 1959 -91 
Q 1206 -91 779 398 
Q 353 888 353 1747 
Q 353 2609 779 3096 
Q 1206 3584 1959 3584 
z
" transform="scale(0.015625)"/>
       <path id="DejaVuSans-6e" d="M 3513 2113 
L 3513 0 
L 2938 0 
L 2938 2094 
Q 2938 2591 2744 2837 
Q 2550 3084 2163 3084 
Q 1697 3084 1428 2787 
Q 1159 2491 1159 1978 
L 1159 0 
L 581 0 
L 581 3500 
L 1159 3500 
L 1159 2956 
Q 1366 3272 1645 3428 
Q 1925 3584 2291 3584 
Q 2894 3584 3203 3211 
Q 3513 2838 3513 2113 
z
" transform="scale(0.015625)"/>
       <path id="DejaVuSans-20" transform="scale(0.015625)"/>
       <path id="DejaVuSans-4e" d="M 628 4666 
L 1478 4666 
L 3547 763 
L 3547 4666 
L 4159 4666 
L 4159 0 
L 3309 0 
L 1241 3903 
L 1241 0 
L 628 0 
L 628 4666 
z
" transform="scale(0.015625)"/>
       <path id="DejaVuSans-75" d="M 544 1381 
L 544 3500 
L 1119 3500 
L 1119 1403 
Q 1119 906 1312 657 
Q 1506 409 1894 409 
Q 2359 409 2629 706 
Q 2900 1003 2900 1516 
L 2900 3500 
L 3475 3500 
L 3475 0 
L 2900 0 
L 2900 538 
Q 2691 219 2414 64 
Q 2138 -91 1772 -91 
Q 1169 -91 856 284 
Q 544 659 544 1381 
z
M 1991 3584 
L 1991 3584 
z
" transform="scale(0.015625)"/>
       <path id="DejaVuSans-6d" d="M 3328 2828 
Q 3544 3216 3844 3400 
Q 4144 3584 4550 3584 
Q 5097 3584 5394 3201 
Q 5691 2819 5691 2113 
L 5691 0 
L 5113 0 
L 5113 2094 
Q 5113 2597 4934 2840 
Q 4756 3084 4391 3084 
Q 3944 3084 3684 2787 
Q 3425 2491 3425 1978 
L 3425 0 
L 2847 0 
L 2847 2094 
Q 2847 2600 2669 2842 
Q 2491 3084 2119 3084 
Q 1678 3084 1418 2786 
Q 1159 2488 1159 1978 
L 1159 0 
L 581 0 
L 581 3500 
L 1159 3500 
L 1159 2956 
Q 1356 3278 1631 3431 
Q 1906 3584 2284 3584 
Q 2666 3584 2933 3390 
Q 3200 3197 3328 2828 
z
" transform="scale(0.015625)"/>
       <path id="DejaVuSans-62" d="M 3116 1747 
Q 3116 2381 2855 2742 
Q 2594 3103 2138 3103 
Q 1681 3103 1420 2742 
Q 1159 2381 1159 1747 
Q 1159 1113 1420 752 
Q 1681 391 2138 391 
Q 2594 391 2855 752 
Q 3116 1113 3116 1747 
z
M 1159 2969 
Q 1341 3281 1617 3432 
Q 1894 3584 2278 3584 
Q 2916 3584 3314 3078 
Q 3713 2572 3713 1747 
Q 3713 922 3314 415 
Q 2916 -91 2278 -91 
Q 1894 -91 1617 61 
Q 1341 213 1159 525 
L 1159 0 
L 581 0 
L 581 4863 
L 1159 4863 
L 1159 2969 
z
" transform="scale(0.015625)"/>
       <path id="DejaVuSans-65" d="M 3597 1894 
L 3597 1613 
L 953 1613 
Q 991 1019 1311 708 
Q 1631 397 2203 397 
Q 2534 397 2845 478 
Q 3156 559 3463 722 
L 3463 178 
Q 3153 47 2828 -22 
Q 2503 -91 2169 -91 
Q 1331 -91 842 396 
Q 353 884 353 1716 
Q 353 2575 817 3079 
Q 1281 3584 2069 3584 
Q 2775 3584 3186 3129 
Q 3597 2675 3597 1894 
z
M 3022 2063 
Q 3016 2534 2758 2815 
Q 2500 3097 2075 3097 
Q 1594 3097 1305 2825 
Q 1016 2553 972 2059 
L 3022 2063 
z
" transform="scale(0.015625)"/>
      </defs>
      <use xlink:href="#DejaVuSans-50"/>
      <use xlink:href="#DejaVuSans-61" x="55.802734"/>
      <use xlink:href="#DejaVuSans-72" x="117.082031"/>
      <use xlink:href="#DejaVuSans-74" x="158.195312"/>
      <use xlink:href="#DejaVuSans-69" x="197.404297"/>
      <use xlink:href="#DejaVuSans-74" x="225.1875"/>
      <use xlink:href="#DejaVuSans-69" x="264.396484"/>
      <use xlink:href="#DejaVuSans-6f" x="292.179688"/>
      <use xlink:href="#DejaVuSans-6e" x="353.361328"/>
      <use xlink:href="#DejaVuSans-20" x="416.740234"/>
      <use xlink:href="#DejaVuSans-4e" x="448.527344"/>
      <use xlink:href="#DejaVuSans-75" x="523.332031"/>
      <use xlink:href="#DejaVuSans-6d" x="586.710938"/>
      <use xlink:href="#DejaVuSans-62" x="684.123047"/>
      <use xlink:href="#DejaVuSans-65" x="747.599609"/>
      <use xlink:href="#DejaVuSans-72" x="809.123047"/>
     </g>
    </g>
   </g>
   <g id="matplotlib.axis_2">
    <g id="ytick_1">
     <g id="line2d_17">
      <path d="M 69.12 282.350802 
L 414.72 282.350802 
" clip-path="url(#pdf024f70ad)" style="fill: none; stroke: #ffffff; stroke-width: 0.8; stroke-linecap: square"/>
     </g>
     <g id="line2d_18">
      <defs>
       <path id="mb26659b171" d="M 0 0 
L -3.5 0 
" style="stroke: #555555; stroke-width: 0.8"/>
      </defs>
      <g>
       <use xlink:href="#mb26659b171" x="69.12" y="282.350802" style="fill: #555555; stroke: #555555; stroke-width: 0.8"/>
      </g>
     </g>
     <g id="text_10">
      <!-- 0 -->
      <g style="fill: #555555" transform="translate(51.94 288.429552)scale(0.16 -0.16)">
       <use xlink:href="#DejaVuSans-30"/>
      </g>
     </g>
    </g>
    <g id="ytick_2">
     <g id="line2d_19">
      <path d="M 69.12 249.479164 
L 414.72 249.479164 
" clip-path="url(#pdf024f70ad)" style="fill: none; stroke: #ffffff; stroke-width: 0.8; stroke-linecap: square"/>
     </g>
     <g id="line2d_20">
      <g>
       <use xlink:href="#mb26659b171" x="69.12" y="249.479164" style="fill: #555555; stroke: #555555; stroke-width: 0.8"/>
      </g>
     </g>
     <g id="text_11">
      <!-- 1 -->
      <g style="fill: #555555" transform="translate(51.94 255.557914)scale(0.16 -0.16)">
       <use xlink:href="#DejaVuSans-31"/>
      </g>
     </g>
    </g>
    <g id="ytick_3">
     <g id="line2d_21">
      <path d="M 69.12 216.607525 
L 414.72 216.607525 
" clip-path="url(#pdf024f70ad)" style="fill: none; stroke: #ffffff; stroke-width: 0.8; stroke-linecap: square"/>
     </g>
     <g id="line2d_22">
      <g>
       <use xlink:href="#mb26659b171" x="69.12" y="216.607525" style="fill: #555555; stroke: #555555; stroke-width: 0.8"/>
      </g>
     </g>
     <g id="text_12">
      <!-- 2 -->
      <g style="fill: #555555" transform="translate(51.94 222.686275)scale(0.16 -0.16)">
       <use xlink:href="#DejaVuSans-32"/>
      </g>
     </g>
    </g>
    <g id="ytick_4">
     <g id="line2d_23">
      <path d="M 69.12 183.735886 
L 414.72 183.735886 
" clip-path="url(#pdf024f70ad)" style="fill: none; stroke: #ffffff; stroke-width: 0.8; stroke-linecap: square"/>
     </g>
     <g id="line2d_24">
      <g>
       <use xlink:href="#mb26659b171" x="69.12" y="183.735886" style="fill: #555555; stroke: #555555; stroke-width: 0.8"/>
      </g>
     </g>
     <g id="text_13">
      <!-- 3 -->
      <g style="fill: #555555" transform="translate(51.94 189.814636)scale(0.16 -0.16)">
       <defs>
        <path id="DejaVuSans-33" d="M 2597 2516 
Q 3050 2419 3304 2112 
Q 3559 1806 3559 1356 
Q 3559 666 3084 287 
Q 2609 -91 1734 -91 
Q 1441 -91 1130 -33 
Q 819 25 488 141 
L 488 750 
Q 750 597 1062 519 
Q 1375 441 1716 441 
Q 2309 441 2620 675 
Q 2931 909 2931 1356 
Q 2931 1769 2642 2001 
Q 2353 2234 1838 2234 
L 1294 2234 
L 1294 2753 
L 1863 2753 
Q 2328 2753 2575 2939 
Q 2822 3125 2822 3475 
Q 2822 3834 2567 4026 
Q 2313 4219 1838 4219 
Q 1578 4219 1281 4162 
Q 984 4106 628 3988 
L 628 4550 
Q 988 4650 1302 4700 
Q 1616 4750 1894 4750 
Q 2613 4750 3031 4423 
Q 3450 4097 3450 3541 
Q 3450 3153 3228 2886 
Q 3006 2619 2597 2516 
z
" transform="scale(0.015625)"/>
       </defs>
       <use xlink:href="#DejaVuSans-33"/>
      </g>
     </g>
    </g>
    <g id="ytick_5">
     <g id="line2d_25">
      <path d="M 69.12 150.864248 
L 414.72 150.864248 
" clip-path="url(#pdf024f70ad)" style="fill: none; stroke: #ffffff; stroke-width: 0.8; stroke-linecap: square"/>
     </g>
     <g id="line2d_26">
      <g>
       <use xlink:href="#mb26659b171" x="69.12" y="150.864248" style="fill: #555555; stroke: #555555; stroke-width: 0.8"/>
      </g>
     </g>
     <g id="text_14">
      <!-- 4 -->
      <g style="fill: #555555" transform="translate(51.94 156.942998)scale(0.16 -0.16)">
       <use xlink:href="#DejaVuSans-34"/>
      </g>
     </g>
    </g>
    <g id="ytick_6">
     <g id="line2d_27">
      <path d="M 69.12 117.992609 
L 414.72 117.992609 
" clip-path="url(#pdf024f70ad)" style="fill: none; stroke: #ffffff; stroke-width: 0.8; stroke-linecap: square"/>
     </g>
     <g id="line2d_28">
      <g>
       <use xlink:href="#mb26659b171" x="69.12" y="117.992609" style="fill: #555555; stroke: #555555; stroke-width: 0.8"/>
      </g>
     </g>
     <g id="text_15">
      <!-- 5 -->
      <g style="fill: #555555" transform="translate(51.94 124.071359)scale(0.16 -0.16)">
       <defs>
        <path id="DejaVuSans-35" d="M 691 4666 
L 3169 4666 
L 3169 4134 
L 1269 4134 
L 1269 2991 
Q 1406 3038 1543 3061 
Q 1681 3084 1819 3084 
Q 2600 3084 3056 2656 
Q 3513 2228 3513 1497 
Q 3513 744 3044 326 
Q 2575 -91 1722 -91 
Q 1428 -91 1123 -41 
Q 819 9 494 109 
L 494 744 
Q 775 591 1075 516 
Q 1375 441 1709 441 
Q 2250 441 2565 725 
Q 2881 1009 2881 1497 
Q 2881 1984 2565 2268 
Q 2250 2553 1709 2553 
Q 1456 2553 1204 2497 
Q 953 2441 691 2322 
L 691 4666 
z
" transform="scale(0.015625)"/>
       </defs>
       <use xlink:href="#DejaVuSans-35"/>
      </g>
     </g>
    </g>
    <g id="ytick_7">
     <g id="line2d_29">
      <path d="M 69.12 85.120971 
L 414.72 85.120971 
" clip-path="url(#pdf024f70ad)" style="fill: none; stroke: #ffffff; stroke-width: 0.8; stroke-linecap: square"/>
     </g>
     <g id="line2d_30">
      <g>
       <use xlink:href="#mb26659b171" x="69.12" y="85.120971" style="fill: #555555; stroke: #555555; stroke-width: 0.8"/>
      </g>
     </g>
     <g id="text_16">
      <!-- 6 -->
      <g style="fill: #555555" transform="translate(51.94 91.199721)scale(0.16 -0.16)">
       <use xlink:href="#DejaVuSans-36"/>
      </g>
     </g>
    </g>
    <g id="ytick_8">
     <g id="line2d_31">
      <path d="M 69.12 52.249332 
L 414.72 52.249332 
" clip-path="url(#pdf024f70ad)" style="fill: none; stroke: #ffffff; stroke-width: 0.8; stroke-linecap: square"/>
     </g>
     <g id="line2d_32">
      <g>
       <use xlink:href="#mb26659b171" x="69.12" y="52.249332" style="fill: #555555; stroke: #555555; stroke-width: 0.8"/>
      </g>
     </g>
     <g id="text_17">
      <!-- 7 -->
      <g style="fill: #555555" transform="translate(51.94 58.328082)scale(0.16 -0.16)">
       <defs>
        <path id="DejaVuSans-37" d="M 525 4666 
L 3525 4666 
L 3525 4397 
L 1831 0 
L 1172 0 
L 2766 4134 
L 525 4134 
L 525 4666 
z
" transform="scale(0.015625)"/>
       </defs>
       <use xlink:href="#DejaVuSans-37"/>
      </g>
     </g>
    </g>
    <g id="text_18">
     <!-- Balance Measure -->
     <g transform="translate(43.780625 253.173812)rotate(-90)scale(0.2 -0.2)">
      <defs>
       <path id="DejaVuSans-42" d="M 1259 2228 
L 1259 519 
L 2272 519 
Q 2781 519 3026 730 
Q 3272 941 3272 1375 
Q 3272 1813 3026 2020 
Q 2781 2228 2272 2228 
L 1259 2228 
z
M 1259 4147 
L 1259 2741 
L 2194 2741 
Q 2656 2741 2882 2914 
Q 3109 3088 3109 3444 
Q 3109 3797 2882 3972 
Q 2656 4147 2194 4147 
L 1259 4147 
z
M 628 4666 
L 2241 4666 
Q 2963 4666 3353 4366 
Q 3744 4066 3744 3513 
Q 3744 3084 3544 2831 
Q 3344 2578 2956 2516 
Q 3422 2416 3680 2098 
Q 3938 1781 3938 1306 
Q 3938 681 3513 340 
Q 3088 0 2303 0 
L 628 0 
L 628 4666 
z
" transform="scale(0.015625)"/>
       <path id="DejaVuSans-6c" d="M 603 4863 
L 1178 4863 
L 1178 0 
L 603 0 
L 603 4863 
z
" transform="scale(0.015625)"/>
       <path id="DejaVuSans-63" d="M 3122 3366 
L 3122 2828 
Q 2878 2963 2633 3030 
Q 2388 3097 2138 3097 
Q 1578 3097 1268 2742 
Q 959 2388 959 1747 
Q 959 1106 1268 751 
Q 1578 397 2138 397 
Q 2388 397 2633 464 
Q 2878 531 3122 666 
L 3122 134 
Q 2881 22 2623 -34 
Q 2366 -91 2075 -91 
Q 1284 -91 818 406 
Q 353 903 353 1747 
Q 353 2603 823 3093 
Q 1294 3584 2113 3584 
Q 2378 3584 2631 3529 
Q 2884 3475 3122 3366 
z
" transform="scale(0.015625)"/>
       <path id="DejaVuSans-4d" d="M 628 4666 
L 1569 4666 
L 2759 1491 
L 3956 4666 
L 4897 4666 
L 4897 0 
L 4281 0 
L 4281 4097 
L 3078 897 
L 2444 897 
L 1241 4097 
L 1241 0 
L 628 0 
L 628 4666 
z
" transform="scale(0.015625)"/>
       <path id="DejaVuSans-73" d="M 2834 3397 
L 2834 2853 
Q 2591 2978 2328 3040 
Q 2066 3103 1784 3103 
Q 1356 3103 1142 2972 
Q 928 2841 928 2578 
Q 928 2378 1081 2264 
Q 1234 2150 1697 2047 
L 1894 2003 
Q 2506 1872 2764 1633 
Q 3022 1394 3022 966 
Q 3022 478 2636 193 
Q 2250 -91 1575 -91 
Q 1294 -91 989 -36 
Q 684 19 347 128 
L 347 722 
Q 666 556 975 473 
Q 1284 391 1588 391 
Q 1994 391 2212 530 
Q 2431 669 2431 922 
Q 2431 1156 2273 1281 
Q 2116 1406 1581 1522 
L 1381 1569 
Q 847 1681 609 1914 
Q 372 2147 372 2553 
Q 372 3047 722 3315 
Q 1072 3584 1716 3584 
Q 2034 3584 2315 3537 
Q 2597 3491 2834 3397 
z
" transform="scale(0.015625)"/>
      </defs>
      <use xlink:href="#DejaVuSans-42"/>
      <use xlink:href="#DejaVuSans-61" x="68.603516"/>
      <use xlink:href="#DejaVuSans-6c" x="129.882812"/>
      <use xlink:href="#DejaVuSans-61" x="157.666016"/>
      <use xlink:href="#DejaVuSans-6e" x="218.945312"/>
      <use xlink:href="#DejaVuSans-63" x="282.324219"/>
      <use xlink:href="#DejaVuSans-65" x="337.304688"/>
      <use xlink:href="#DejaVuSans-20" x="398.828125"/>
      <use xlink:href="#DejaVuSans-4d" x="430.615234"/>
      <use xlink:href="#DejaVuSans-65" x="516.894531"/>
      <use xlink:href="#DejaVuSans-61" x="578.417969"/>
      <use xlink:href="#DejaVuSans-73" x="639.697266"/>
      <use xlink:href="#DejaVuSans-75" x="691.796875"/>
      <use xlink:href="#DejaVuSans-72" x="755.175781"/>
      <use xlink:href="#DejaVuSans-65" x="794.039062"/>
     </g>
    </g>
   </g>
   <g id="line2d_33">
    <path d="M 84.829091 282.292364 
L 107.270649 282.120828 
L 129.712208 282.137018 
L 152.153766 282.159262 
L 174.595325 281.913255 
L 197.036883 281.984374 
L 219.478442 281.862474 
L 241.92 281.772377 
L 264.361558 281.89617 
L 286.803117 281.707704 
L 309.244675 281.626897 
L 331.686234 281.521267 
L 354.127792 281.409927 
L 376.569351 281.464624 
L 399.010909 281.178467 
" clip-path="url(#pdf024f70ad)" style="fill: none; stroke-dasharray: 9.6,2.4,1.5,2.4; stroke-dashoffset: 0; stroke: #e24a33; stroke-width: 1.5"/>
    <defs>
     <path id="ma0bbe41422" d="M -6 6 
L 6 6 
L 6 -6 
L -6 -6 
z
" style="stroke: #e24a33; stroke-linejoin: miter"/>
    </defs>
    <g clip-path="url(#pdf024f70ad)">
     <use xlink:href="#ma0bbe41422" x="84.829091" y="282.292364" style="fill: #e24a33; stroke: #e24a33; stroke-linejoin: miter"/>
     <use xlink:href="#ma0bbe41422" x="107.270649" y="282.120828" style="fill: #e24a33; stroke: #e24a33; stroke-linejoin: miter"/>
     <use xlink:href="#ma0bbe41422" x="129.712208" y="282.137018" style="fill: #e24a33; stroke: #e24a33; stroke-linejoin: miter"/>
     <use xlink:href="#ma0bbe41422" x="152.153766" y="282.159262" style="fill: #e24a33; stroke: #e24a33; stroke-linejoin: miter"/>
     <use xlink:href="#ma0bbe41422" x="174.595325" y="281.913255" style="fill: #e24a33; stroke: #e24a33; stroke-linejoin: miter"/>
     <use xlink:href="#ma0bbe41422" x="197.036883" y="281.984374" style="fill: #e24a33; stroke: #e24a33; stroke-linejoin: miter"/>
     <use xlink:href="#ma0bbe41422" x="219.478442" y="281.862474" style="fill: #e24a33; stroke: #e24a33; stroke-linejoin: miter"/>
     <use xlink:href="#ma0bbe41422" x="241.92" y="281.772377" style="fill: #e24a33; stroke: #e24a33; stroke-linejoin: miter"/>
     <use xlink:href="#ma0bbe41422" x="264.361558" y="281.89617" style="fill: #e24a33; stroke: #e24a33; stroke-linejoin: miter"/>
     <use xlink:href="#ma0bbe41422" x="286.803117" y="281.707704" style="fill: #e24a33; stroke: #e24a33; stroke-linejoin: miter"/>
     <use xlink:href="#ma0bbe41422" x="309.244675" y="281.626897" style="fill: #e24a33; stroke: #e24a33; stroke-linejoin: miter"/>
     <use xlink:href="#ma0bbe41422" x="331.686234" y="281.521267" style="fill: #e24a33; stroke: #e24a33; stroke-linejoin: miter"/>
     <use xlink:href="#ma0bbe41422" x="354.127792" y="281.409927" style="fill: #e24a33; stroke: #e24a33; stroke-linejoin: miter"/>
     <use xlink:href="#ma0bbe41422" x="376.569351" y="281.464624" style="fill: #e24a33; stroke: #e24a33; stroke-linejoin: miter"/>
     <use xlink:href="#ma0bbe41422" x="399.010909" y="281.178467" style="fill: #e24a33; stroke: #e24a33; stroke-linejoin: miter"/>
    </g>
   </g>
   <g id="line2d_34">
    <path d="M 84.829091 275.644988 
L 107.270649 267.591436 
L 129.712208 264.008428 
L 152.153766 261.214338 
L 174.595325 261.148595 
L 197.036883 252.076023 
L 219.478442 254.212679 
L 241.92 251.681563 
L 264.361558 248.295785 
L 286.803117 247.079534 
L 309.244675 245.468824 
L 331.686234 245.929027 
L 354.127792 243.59514 
L 376.569351 242.740478 
L 399.010909 240.833923 
" clip-path="url(#pdf024f70ad)" style="fill: none; stroke-dasharray: 5.55,2.4; stroke-dashoffset: 0; stroke: #348abd; stroke-width: 1.5"/>
    <defs>
     <path id="m0a2fcd3be2" d="M 0 5.656854 
L 5.656854 0 
L 0 -5.656854 
L -5.656854 0 
z
" style="stroke: #348abd; stroke-linejoin: miter"/>
    </defs>
    <g clip-path="url(#pdf024f70ad)">
     <use xlink:href="#m0a2fcd3be2" x="84.829091" y="275.644988" style="fill: #348abd; stroke: #348abd; stroke-linejoin: miter"/>
     <use xlink:href="#m0a2fcd3be2" x="107.270649" y="267.591436" style="fill: #348abd; stroke: #348abd; stroke-linejoin: miter"/>
     <use xlink:href="#m0a2fcd3be2" x="129.712208" y="264.008428" style="fill: #348abd; stroke: #348abd; stroke-linejoin: miter"/>
     <use xlink:href="#m0a2fcd3be2" x="152.153766" y="261.214338" style="fill: #348abd; stroke: #348abd; stroke-linejoin: miter"/>
     <use xlink:href="#m0a2fcd3be2" x="174.595325" y="261.148595" style="fill: #348abd; stroke: #348abd; stroke-linejoin: miter"/>
     <use xlink:href="#m0a2fcd3be2" x="197.036883" y="252.076023" style="fill: #348abd; stroke: #348abd; stroke-linejoin: miter"/>
     <use xlink:href="#m0a2fcd3be2" x="219.478442" y="254.212679" style="fill: #348abd; stroke: #348abd; stroke-linejoin: miter"/>
     <use xlink:href="#m0a2fcd3be2" x="241.92" y="251.681563" style="fill: #348abd; stroke: #348abd; stroke-linejoin: miter"/>
     <use xlink:href="#m0a2fcd3be2" x="264.361558" y="248.295785" style="fill: #348abd; stroke: #348abd; stroke-linejoin: miter"/>
     <use xlink:href="#m0a2fcd3be2" x="286.803117" y="247.079534" style="fill: #348abd; stroke: #348abd; stroke-linejoin: miter"/>
     <use xlink:href="#m0a2fcd3be2" x="309.244675" y="245.468824" style="fill: #348abd; stroke: #348abd; stroke-linejoin: miter"/>
     <use xlink:href="#m0a2fcd3be2" x="331.686234" y="245.929027" style="fill: #348abd; stroke: #348abd; stroke-linejoin: miter"/>
     <use xlink:href="#m0a2fcd3be2" x="354.127792" y="243.59514" style="fill: #348abd; stroke: #348abd; stroke-linejoin: miter"/>
     <use xlink:href="#m0a2fcd3be2" x="376.569351" y="242.740478" style="fill: #348abd; stroke: #348abd; stroke-linejoin: miter"/>
     <use xlink:href="#m0a2fcd3be2" x="399.010909" y="240.833923" style="fill: #348abd; stroke: #348abd; stroke-linejoin: miter"/>
    </g>
   </g>
   <g id="line2d_35">
    <path d="M 84.829091 268.150254 
L 107.270649 270.418397 
L 129.712208 261.904643 
L 152.153766 267.591436 
L 174.595325 260.063831 
L 197.036883 255.560417 
L 219.478442 252.273253 
L 241.92 246.323486 
L 264.361558 247.60548 
L 286.803117 241.359869 
L 309.244675 238.335678 
L 331.686234 238.039833 
L 354.127792 243.628012 
L 376.569351 228.605673 
L 399.010909 233.273446 
" clip-path="url(#pdf024f70ad)" style="fill: none; stroke-dasharray: 1.5,2.475; stroke-dashoffset: 0; stroke: #988ed5; stroke-width: 1.5"/>
    <defs>
     <path id="m020e80ab3f" d="M 0 -4 
L -4 4 
L 4 4 
z
" style="stroke: #988ed5; stroke-linejoin: miter"/>
    </defs>
    <g clip-path="url(#pdf024f70ad)">
     <use xlink:href="#m020e80ab3f" x="84.829091" y="268.150254" style="fill: #988ed5; stroke: #988ed5; stroke-linejoin: miter"/>
     <use xlink:href="#m020e80ab3f" x="107.270649" y="270.418397" style="fill: #988ed5; stroke: #988ed5; stroke-linejoin: miter"/>
     <use xlink:href="#m020e80ab3f" x="129.712208" y="261.904643" style="fill: #988ed5; stroke: #988ed5; stroke-linejoin: miter"/>
     <use xlink:href="#m020e80ab3f" x="152.153766" y="267.591436" style="fill: #988ed5; stroke: #988ed5; stroke-linejoin: miter"/>
     <use xlink:href="#m020e80ab3f" x="174.595325" y="260.063831" style="fill: #988ed5; stroke: #988ed5; stroke-linejoin: miter"/>
     <use xlink:href="#m020e80ab3f" x="197.036883" y="255.560417" style="fill: #988ed5; stroke: #988ed5; stroke-linejoin: miter"/>
     <use xlink:href="#m020e80ab3f" x="219.478442" y="252.273253" style="fill: #988ed5; stroke: #988ed5; stroke-linejoin: miter"/>
     <use xlink:href="#m020e80ab3f" x="241.92" y="246.323486" style="fill: #988ed5; stroke: #988ed5; stroke-linejoin: miter"/>
     <use xlink:href="#m020e80ab3f" x="264.361558" y="247.60548" style="fill: #988ed5; stroke: #988ed5; stroke-linejoin: miter"/>
     <use xlink:href="#m020e80ab3f" x="286.803117" y="241.359869" style="fill: #988ed5; stroke: #988ed5; stroke-linejoin: miter"/>
     <use xlink:href="#m020e80ab3f" x="309.244675" y="238.335678" style="fill: #988ed5; stroke: #988ed5; stroke-linejoin: miter"/>
     <use xlink:href="#m020e80ab3f" x="331.686234" y="238.039833" style="fill: #988ed5; stroke: #988ed5; stroke-linejoin: miter"/>
     <use xlink:href="#m020e80ab3f" x="354.127792" y="243.628012" style="fill: #988ed5; stroke: #988ed5; stroke-linejoin: miter"/>
     <use xlink:href="#m020e80ab3f" x="376.569351" y="228.605673" style="fill: #988ed5; stroke: #988ed5; stroke-linejoin: miter"/>
     <use xlink:href="#m020e80ab3f" x="399.010909" y="233.273446" style="fill: #988ed5; stroke: #988ed5; stroke-linejoin: miter"/>
    </g>
   </g>
   <g id="line2d_36">
    <path d="M 84.829091 274.330122 
L 107.270649 250.465313 
L 129.712208 242.871964 
L 152.153766 218.777053 
L 174.595325 203.886201 
L 197.036883 195.503933 
L 219.478442 171.869225 
L 241.92 158.391853 
L 264.361558 145.539042 
L 286.803117 115.231391 
L 309.244675 132.2589 
L 331.686234 52.939636 
L 354.127792 87.553472 
L 376.569351 84.036206 
L 399.010909 68.783766 
" clip-path="url(#pdf024f70ad)" style="fill: none; stroke-dasharray: 5.55,2.4; stroke-dashoffset: 0; stroke: #777777; stroke-width: 1.5"/>
    <defs>
     <path id="mb8e06a9ba5" d="M -2 -3.464102 
L -4 -0 
L -2 3.464102 
L 2 3.464102 
L 4 0 
L 2 -3.464102 
z
" style="stroke: #777777; stroke-linejoin: miter"/>
    </defs>
    <g clip-path="url(#pdf024f70ad)">
     <use xlink:href="#mb8e06a9ba5" x="84.829091" y="274.330122" style="fill: #777777; stroke: #777777; stroke-linejoin: miter"/>
     <use xlink:href="#mb8e06a9ba5" x="107.270649" y="250.465313" style="fill: #777777; stroke: #777777; stroke-linejoin: miter"/>
     <use xlink:href="#mb8e06a9ba5" x="129.712208" y="242.871964" style="fill: #777777; stroke: #777777; stroke-linejoin: miter"/>
     <use xlink:href="#mb8e06a9ba5" x="152.153766" y="218.777053" style="fill: #777777; stroke: #777777; stroke-linejoin: miter"/>
     <use xlink:href="#mb8e06a9ba5" x="174.595325" y="203.886201" style="fill: #777777; stroke: #777777; stroke-linejoin: miter"/>
     <use xlink:href="#mb8e06a9ba5" x="197.036883" y="195.503933" style="fill: #777777; stroke: #777777; stroke-linejoin: miter"/>
     <use xlink:href="#mb8e06a9ba5" x="219.478442" y="171.869225" style="fill: #777777; stroke: #777777; stroke-linejoin: miter"/>
     <use xlink:href="#mb8e06a9ba5" x="241.92" y="158.391853" style="fill: #777777; stroke: #777777; stroke-linejoin: miter"/>
     <use xlink:href="#mb8e06a9ba5" x="264.361558" y="145.539042" style="fill: #777777; stroke: #777777; stroke-linejoin: miter"/>
     <use xlink:href="#mb8e06a9ba5" x="286.803117" y="115.231391" style="fill: #777777; stroke: #777777; stroke-linejoin: miter"/>
     <use xlink:href="#mb8e06a9ba5" x="309.244675" y="132.2589" style="fill: #777777; stroke: #777777; stroke-linejoin: miter"/>
     <use xlink:href="#mb8e06a9ba5" x="331.686234" y="52.939636" style="fill: #777777; stroke: #777777; stroke-linejoin: miter"/>
     <use xlink:href="#mb8e06a9ba5" x="354.127792" y="87.553472" style="fill: #777777; stroke: #777777; stroke-linejoin: miter"/>
     <use xlink:href="#mb8e06a9ba5" x="376.569351" y="84.036206" style="fill: #777777; stroke: #777777; stroke-linejoin: miter"/>
     <use xlink:href="#mb8e06a9ba5" x="399.010909" y="68.783766" style="fill: #777777; stroke: #777777; stroke-linejoin: miter"/>
    </g>
   </g>
   <g id="line2d_37">
    <path d="M 84.829091 280.016916 
L 107.270649 278.669179 
L 129.712208 277.814516 
L 152.153766 278.866408 
L 174.595325 277.157083 
L 197.036883 264.928834 
L 219.478442 272.324952 
L 241.92 258.814709 
L 264.361558 261.345825 
L 286.803117 250.728286 
L 309.244675 259.932345 
L 331.686234 231.202532 
L 354.127792 198.758225 
L 376.569351 182.158048 
L 399.010909 154.052797 
" clip-path="url(#pdf024f70ad)" style="fill: none; stroke-dasharray: 5.55,2.4; stroke-dashoffset: 0; stroke: #fbc15e; stroke-width: 1.5"/>
    <defs>
     <path id="mc9fb0a8e5c" d="M 4 0 
L -4 -4 
L -4 4 
z
" style="stroke: #fbc15e; stroke-linejoin: miter"/>
    </defs>
    <g clip-path="url(#pdf024f70ad)">
     <use xlink:href="#mc9fb0a8e5c" x="84.829091" y="280.016916" style="fill: #fbc15e; stroke: #fbc15e; stroke-linejoin: miter"/>
     <use xlink:href="#mc9fb0a8e5c" x="107.270649" y="278.669179" style="fill: #fbc15e; stroke: #fbc15e; stroke-linejoin: miter"/>
     <use xlink:href="#mc9fb0a8e5c" x="129.712208" y="277.814516" style="fill: #fbc15e; stroke: #fbc15e; stroke-linejoin: miter"/>
     <use xlink:href="#mc9fb0a8e5c" x="152.153766" y="278.866408" style="fill: #fbc15e; stroke: #fbc15e; stroke-linejoin: miter"/>
     <use xlink:href="#mc9fb0a8e5c" x="174.595325" y="277.157083" style="fill: #fbc15e; stroke: #fbc15e; stroke-linejoin: miter"/>
     <use xlink:href="#mc9fb0a8e5c" x="197.036883" y="264.928834" style="fill: #fbc15e; stroke: #fbc15e; stroke-linejoin: miter"/>
     <use xlink:href="#mc9fb0a8e5c" x="219.478442" y="272.324952" style="fill: #fbc15e; stroke: #fbc15e; stroke-linejoin: miter"/>
     <use xlink:href="#mc9fb0a8e5c" x="241.92" y="258.814709" style="fill: #fbc15e; stroke: #fbc15e; stroke-linejoin: miter"/>
     <use xlink:href="#mc9fb0a8e5c" x="264.361558" y="261.345825" style="fill: #fbc15e; stroke: #fbc15e; stroke-linejoin: miter"/>
     <use xlink:href="#mc9fb0a8e5c" x="286.803117" y="250.728286" style="fill: #fbc15e; stroke: #fbc15e; stroke-linejoin: miter"/>
     <use xlink:href="#mc9fb0a8e5c" x="309.244675" y="259.932345" style="fill: #fbc15e; stroke: #fbc15e; stroke-linejoin: miter"/>
     <use xlink:href="#mc9fb0a8e5c" x="331.686234" y="231.202532" style="fill: #fbc15e; stroke: #fbc15e; stroke-linejoin: miter"/>
     <use xlink:href="#mc9fb0a8e5c" x="354.127792" y="198.758225" style="fill: #fbc15e; stroke: #fbc15e; stroke-linejoin: miter"/>
     <use xlink:href="#mc9fb0a8e5c" x="376.569351" y="182.158048" style="fill: #fbc15e; stroke: #fbc15e; stroke-linejoin: miter"/>
     <use xlink:href="#mc9fb0a8e5c" x="399.010909" y="154.052797" style="fill: #fbc15e; stroke: #fbc15e; stroke-linejoin: miter"/>
    </g>
   </g>
   <g id="patch_3">
    <path d="M 69.12 293.76 
L 69.12 41.472 
" style="fill: none; stroke: #ffffff; stroke-linejoin: miter; stroke-linecap: square"/>
   </g>
   <g id="patch_4">
    <path d="M 414.72 293.76 
L 414.72 41.472 
" style="fill: none; stroke: #ffffff; stroke-linejoin: miter; stroke-linecap: square"/>
   </g>
   <g id="patch_5">
    <path d="M 69.12 293.76 
L 414.72 293.76 
" style="fill: none; stroke: #ffffff; stroke-linejoin: miter; stroke-linecap: square"/>
   </g>
   <g id="patch_6">
    <path d="M 69.12 41.472 
L 414.72 41.472 
" style="fill: none; stroke: #ffffff; stroke-linejoin: miter; stroke-linecap: square"/>
   </g>
   <g id="text_19">
    <!-- Fat-Tree, k=10 -->
    <g transform="translate(170.260625 35.472)scale(0.2 -0.2)">
     <defs>
      <path id="DejaVuSans-46" d="M 628 4666 
L 3309 4666 
L 3309 4134 
L 1259 4134 
L 1259 2759 
L 3109 2759 
L 3109 2228 
L 1259 2228 
L 1259 0 
L 628 0 
L 628 4666 
z
" transform="scale(0.015625)"/>
      <path id="DejaVuSans-2d" d="M 313 2009 
L 1997 2009 
L 1997 1497 
L 313 1497 
L 313 2009 
z
" transform="scale(0.015625)"/>
      <path id="DejaVuSans-54" d="M -19 4666 
L 3928 4666 
L 3928 4134 
L 2272 4134 
L 2272 0 
L 1638 0 
L 1638 4134 
L -19 4134 
L -19 4666 
z
" transform="scale(0.015625)"/>
      <path id="DejaVuSans-2c" d="M 750 794 
L 1409 794 
L 1409 256 
L 897 -744 
L 494 -744 
L 750 256 
L 750 794 
z
" transform="scale(0.015625)"/>
      <path id="DejaVuSans-6b" d="M 581 4863 
L 1159 4863 
L 1159 1991 
L 2875 3500 
L 3609 3500 
L 1753 1863 
L 3688 0 
L 2938 0 
L 1159 1709 
L 1159 0 
L 581 0 
L 581 4863 
z
" transform="scale(0.015625)"/>
      <path id="DejaVuSans-3d" d="M 678 2906 
L 4684 2906 
L 4684 2381 
L 678 2381 
L 678 2906 
z
M 678 1631 
L 4684 1631 
L 4684 1100 
L 678 1100 
L 678 1631 
z
" transform="scale(0.015625)"/>
     </defs>
     <use xlink:href="#DejaVuSans-46"/>
     <use xlink:href="#DejaVuSans-61" x="48.394531"/>
     <use xlink:href="#DejaVuSans-74" x="109.673828"/>
     <use xlink:href="#DejaVuSans-2d" x="148.882812"/>
     <use xlink:href="#DejaVuSans-54" x="175.841797"/>
     <use xlink:href="#DejaVuSans-72" x="222.175781"/>
     <use xlink:href="#DejaVuSans-65" x="261.039062"/>
     <use xlink:href="#DejaVuSans-65" x="322.5625"/>
     <use xlink:href="#DejaVuSans-2c" x="384.085938"/>
     <use xlink:href="#DejaVuSans-20" x="415.873047"/>
     <use xlink:href="#DejaVuSans-6b" x="447.660156"/>
     <use xlink:href="#DejaVuSans-3d" x="505.570312"/>
     <use xlink:href="#DejaVuSans-31" x="589.359375"/>
     <use xlink:href="#DejaVuSans-30" x="652.982422"/>
    </g>
   </g>
   <g id="legend_1">
    <g id="patch_7">
     <path d="M 76.12 78.82825 
L 293.045 78.82825 
Q 295.045 78.82825 295.045 76.82825 
L 295.045 48.472 
Q 295.045 46.472 293.045 46.472 
L 76.12 46.472 
Q 74.12 46.472 74.12 48.472 
L 74.12 76.82825 
Q 74.12 78.82825 76.12 78.82825 
z
" style="fill: #e5e5e5; opacity: 0.8; stroke: #cccccc; stroke-width: 0.5; stroke-linejoin: miter"/>
    </g>
    <g id="line2d_38">
     <path d="M 78.12 54.570437 
L 88.12 54.570437 
L 98.12 54.570437 
" style="fill: none; stroke-dasharray: 9.6,2.4,1.5,2.4; stroke-dashoffset: 0; stroke: #e24a33; stroke-width: 1.5"/>
     <g>
      <use xlink:href="#ma0bbe41422" x="88.12" y="54.570437" style="fill: #e24a33; stroke: #e24a33; stroke-linejoin: miter"/>
     </g>
    </g>
    <g id="text_20">
     <!-- AC -->
     <g transform="translate(106.12 58.070437)scale(0.1 -0.1)">
      <defs>
       <path id="DejaVuSans-41" d="M 2188 4044 
L 1331 1722 
L 3047 1722 
L 2188 4044 
z
M 1831 4666 
L 2547 4666 
L 4325 0 
L 3669 0 
L 3244 1197 
L 1141 1197 
L 716 0 
L 50 0 
L 1831 4666 
z
" transform="scale(0.015625)"/>
       <path id="DejaVuSans-43" d="M 4122 4306 
L 4122 3641 
Q 3803 3938 3442 4084 
Q 3081 4231 2675 4231 
Q 1875 4231 1450 3742 
Q 1025 3253 1025 2328 
Q 1025 1406 1450 917 
Q 1875 428 2675 428 
Q 3081 428 3442 575 
Q 3803 722 4122 1019 
L 4122 359 
Q 3791 134 3420 21 
Q 3050 -91 2638 -91 
Q 1578 -91 968 557 
Q 359 1206 359 2328 
Q 359 3453 968 4101 
Q 1578 4750 2638 4750 
Q 3056 4750 3426 4639 
Q 3797 4528 4122 4306 
z
" transform="scale(0.015625)"/>
      </defs>
      <use xlink:href="#DejaVuSans-41"/>
      <use xlink:href="#DejaVuSans-43" x="66.658203"/>
     </g>
    </g>
    <g id="line2d_39">
     <path d="M 78.12 69.248562 
L 88.12 69.248562 
L 98.12 69.248562 
" style="fill: none; stroke-dasharray: 5.55,2.4; stroke-dashoffset: 0; stroke: #348abd; stroke-width: 1.5"/>
     <g>
      <use xlink:href="#m0a2fcd3be2" x="88.12" y="69.248562" style="fill: #348abd; stroke: #348abd; stroke-linejoin: miter"/>
     </g>
    </g>
    <g id="text_21">
     <!-- DBH -->
     <g transform="translate(106.12 72.748562)scale(0.1 -0.1)">
      <defs>
       <path id="DejaVuSans-44" d="M 1259 4147 
L 1259 519 
L 2022 519 
Q 2988 519 3436 956 
Q 3884 1394 3884 2338 
Q 3884 3275 3436 3711 
Q 2988 4147 2022 4147 
L 1259 4147 
z
M 628 4666 
L 1925 4666 
Q 3281 4666 3915 4102 
Q 4550 3538 4550 2338 
Q 4550 1131 3912 565 
Q 3275 0 1925 0 
L 628 0 
L 628 4666 
z
" transform="scale(0.015625)"/>
       <path id="DejaVuSans-48" d="M 628 4666 
L 1259 4666 
L 1259 2753 
L 3553 2753 
L 3553 4666 
L 4184 4666 
L 4184 0 
L 3553 0 
L 3553 2222 
L 1259 2222 
L 1259 0 
L 628 0 
L 628 4666 
z
" transform="scale(0.015625)"/>
      </defs>
      <use xlink:href="#DejaVuSans-44"/>
      <use xlink:href="#DejaVuSans-42" x="77.001953"/>
      <use xlink:href="#DejaVuSans-48" x="145.605469"/>
     </g>
    </g>
    <g id="line2d_40">
     <path d="M 148.20125 54.570437 
L 158.20125 54.570437 
L 168.20125 54.570437 
" style="fill: none; stroke-dasharray: 1.5,2.475; stroke-dashoffset: 0; stroke: #988ed5; stroke-width: 1.5"/>
     <g>
      <use xlink:href="#m020e80ab3f" x="158.20125" y="54.570437" style="fill: #988ed5; stroke: #988ed5; stroke-linejoin: miter"/>
     </g>
    </g>
    <g id="text_22">
     <!-- HDRF -->
     <g transform="translate(176.20125 58.070437)scale(0.1 -0.1)">
      <defs>
       <path id="DejaVuSans-52" d="M 2841 2188 
Q 3044 2119 3236 1894 
Q 3428 1669 3622 1275 
L 4263 0 
L 3584 0 
L 2988 1197 
Q 2756 1666 2539 1819 
Q 2322 1972 1947 1972 
L 1259 1972 
L 1259 0 
L 628 0 
L 628 4666 
L 2053 4666 
Q 2853 4666 3247 4331 
Q 3641 3997 3641 3322 
Q 3641 2881 3436 2590 
Q 3231 2300 2841 2188 
z
M 1259 4147 
L 1259 2491 
L 2053 2491 
Q 2509 2491 2742 2702 
Q 2975 2913 2975 3322 
Q 2975 3731 2742 3939 
Q 2509 4147 2053 4147 
L 1259 4147 
z
" transform="scale(0.015625)"/>
      </defs>
      <use xlink:href="#DejaVuSans-48"/>
      <use xlink:href="#DejaVuSans-44" x="75.195312"/>
      <use xlink:href="#DejaVuSans-52" x="152.197266"/>
      <use xlink:href="#DejaVuSans-46" x="221.679688"/>
     </g>
    </g>
    <g id="line2d_41">
     <path d="M 148.20125 69.248562 
L 158.20125 69.248562 
L 168.20125 69.248562 
" style="fill: none; stroke-dasharray: 5.55,2.4; stroke-dashoffset: 0; stroke: #777777; stroke-width: 1.5"/>
     <g>
      <use xlink:href="#mb8e06a9ba5" x="158.20125" y="69.248562" style="fill: #777777; stroke: #777777; stroke-linejoin: miter"/>
     </g>
    </g>
    <g id="text_23">
     <!-- LDG -->
     <g transform="translate(176.20125 72.748562)scale(0.1 -0.1)">
      <defs>
       <path id="DejaVuSans-4c" d="M 628 4666 
L 1259 4666 
L 1259 531 
L 3531 531 
L 3531 0 
L 628 0 
L 628 4666 
z
" transform="scale(0.015625)"/>
       <path id="DejaVuSans-47" d="M 3809 666 
L 3809 1919 
L 2778 1919 
L 2778 2438 
L 4434 2438 
L 4434 434 
Q 4069 175 3628 42 
Q 3188 -91 2688 -91 
Q 1594 -91 976 548 
Q 359 1188 359 2328 
Q 359 3472 976 4111 
Q 1594 4750 2688 4750 
Q 3144 4750 3555 4637 
Q 3966 4525 4313 4306 
L 4313 3634 
Q 3963 3931 3569 4081 
Q 3175 4231 2741 4231 
Q 1884 4231 1454 3753 
Q 1025 3275 1025 2328 
Q 1025 1384 1454 906 
Q 1884 428 2741 428 
Q 3075 428 3337 486 
Q 3600 544 3809 666 
z
" transform="scale(0.015625)"/>
      </defs>
      <use xlink:href="#DejaVuSans-4c"/>
      <use xlink:href="#DejaVuSans-44" x="55.712891"/>
      <use xlink:href="#DejaVuSans-47" x="132.714844"/>
     </g>
    </g>
    <g id="line2d_42">
     <path d="M 224.121562 54.570437 
L 234.121562 54.570437 
L 244.121562 54.570437 
" style="fill: none; stroke-dasharray: 5.55,2.4; stroke-dashoffset: 0; stroke: #fbc15e; stroke-width: 1.5"/>
     <g>
      <use xlink:href="#mc9fb0a8e5c" x="234.121562" y="54.570437" style="fill: #fbc15e; stroke: #fbc15e; stroke-linejoin: miter"/>
     </g>
    </g>
    <g id="text_24">
     <!-- FENNEL -->
     <g transform="translate(252.121562 58.070437)scale(0.1 -0.1)">
      <defs>
       <path id="DejaVuSans-45" d="M 628 4666 
L 3578 4666 
L 3578 4134 
L 1259 4134 
L 1259 2753 
L 3481 2753 
L 3481 2222 
L 1259 2222 
L 1259 531 
L 3634 531 
L 3634 0 
L 628 0 
L 628 4666 
z
" transform="scale(0.015625)"/>
      </defs>
      <use xlink:href="#DejaVuSans-46"/>
      <use xlink:href="#DejaVuSans-45" x="57.519531"/>
      <use xlink:href="#DejaVuSans-4e" x="120.703125"/>
      <use xlink:href="#DejaVuSans-4e" x="195.507812"/>
      <use xlink:href="#DejaVuSans-45" x="270.3125"/>
      <use xlink:href="#DejaVuSans-4c" x="333.496094"/>
     </g>
    </g>
   </g>
  </g>
 </g>
 <defs>
  <clipPath id="pdf024f70ad">
   <rect x="69.12" y="41.472" width="345.6" height="252.288"/>
  </clipPath>
 </defs>
</svg>
