<?xml version="1.0" encoding="utf-8" standalone="no"?>
<!DOCTYPE svg PUBLIC "-//W3C//DTD SVG 1.1//EN"
  "http://www.w3.org/Graphics/SVG/1.1/DTD/svg11.dtd">
<svg xmlns:xlink="http://www.w3.org/1999/xlink" width="460.8pt" height="345.6pt" viewBox="0 0 460.8 345.6" xmlns="http://www.w3.org/2000/svg" version="1.1">
 <metadata>
  <rdf:RDF xmlns:dc="http://purl.org/dc/elements/1.1/" xmlns:cc="http://creativecommons.org/ns#" xmlns:rdf="http://www.w3.org/1999/02/22-rdf-syntax-ns#">
   <cc:Work>
    <dc:type rdf:resource="http://purl.org/dc/dcmitype/StillImage"/>
    <dc:date>2022-08-01T21:47:58.386566</dc:date>
    <dc:format>image/svg+xml</dc:format>
    <dc:creator>
     <cc:Agent>
      <dc:title>Matplotlib v3.5.1, https://matplotlib.org/</dc:title>
     </cc:Agent>
    </dc:creator>
   </cc:Work>
  </rdf:RDF>
 </metadata>
 <defs>
  <style type="text/css">*{stroke-linejoin: round; stroke-linecap: butt}</style>
 </defs>
 <g id="figure_1">
  <g id="patch_1">
   <path d="M 0 345.6 
L 460.8 345.6 
L 460.8 0 
L 0 0 
z
" style="fill: #ffffff"/>
  </g>
  <g id="axes_1">
   <g id="patch_2">
    <path d="M 52.662857 296.228571 
L 414.72 296.228571 
L 414.72 41.472 
L 52.662857 41.472 
z
" style="fill: #e5e5e5"/>
   </g>
   <g id="matplotlib.axis_1">
    <g id="xtick_1">
     <g id="line2d_1">
      <path d="M 69.12 296.228571 
L 69.12 41.472 
" clip-path="url(#p34cfd70923)" style="fill: none; stroke: #ffffff; stroke-width: 0.8; stroke-linecap: square"/>
     </g>
     <g id="line2d_2">
      <defs>
       <path id="m9f1f869e90" d="M 0 0 
L 0 3.5 
" style="stroke: #555555; stroke-width: 0.8"/>
      </defs>
      <g>
       <use xlink:href="#m9f1f869e90" x="69.12" y="296.228571" style="fill: #555555; stroke: #555555; stroke-width: 0.8"/>
      </g>
     </g>
     <g id="text_1">
      <!-- 2 -->
      <g style="fill: #555555" transform="translate(64.03 315.386071)scale(0.16 -0.16)">
       <defs>
        <path id="DejaVuSans-32" d="M 1228 531 
L 3431 531 
L 3431 0 
L 469 0 
L 469 531 
Q 828 903 1448 1529 
Q 2069 2156 2228 2338 
Q 2531 2678 2651 2914 
Q 2772 3150 2772 3378 
Q 2772 3750 2511 3984 
Q 2250 4219 1831 4219 
Q 1534 4219 1204 4116 
Q 875 4013 500 3803 
L 500 4441 
Q 881 4594 1212 4672 
Q 1544 4750 1819 4750 
Q 2544 4750 2975 4387 
Q 3406 4025 3406 3419 
Q 3406 3131 3298 2873 
Q 3191 2616 2906 2266 
Q 2828 2175 2409 1742 
Q 1991 1309 1228 531 
z
" transform="scale(0.015625)"/>
       </defs>
       <use xlink:href="#DejaVuSans-32"/>
      </g>
     </g>
    </g>
    <g id="xtick_2">
     <g id="line2d_3">
      <path d="M 116.140408 296.228571 
L 116.140408 41.472 
" clip-path="url(#p34cfd70923)" style="fill: none; stroke: #ffffff; stroke-width: 0.8; stroke-linecap: square"/>
     </g>
     <g id="line2d_4">
      <g>
       <use xlink:href="#m9f1f869e90" x="116.140408" y="296.228571" style="fill: #555555; stroke: #555555; stroke-width: 0.8"/>
      </g>
     </g>
     <g id="text_2">
      <!-- 4 -->
      <g style="fill: #555555" transform="translate(111.050408 315.386071)scale(0.16 -0.16)">
       <defs>
        <path id="DejaVuSans-34" d="M 2419 4116 
L 825 1625 
L 2419 1625 
L 2419 4116 
z
M 2253 4666 
L 3047 4666 
L 3047 1625 
L 3713 1625 
L 3713 1100 
L 3047 1100 
L 3047 0 
L 2419 0 
L 2419 1100 
L 313 1100 
L 313 1709 
L 2253 4666 
z
" transform="scale(0.015625)"/>
       </defs>
       <use xlink:href="#DejaVuSans-34"/>
      </g>
     </g>
    </g>
    <g id="xtick_3">
     <g id="line2d_5">
      <path d="M 163.160816 296.228571 
L 163.160816 41.472 
" clip-path="url(#p34cfd70923)" style="fill: none; stroke: #ffffff; stroke-width: 0.8; stroke-linecap: square"/>
     </g>
     <g id="line2d_6">
      <g>
       <use xlink:href="#m9f1f869e90" x="163.160816" y="296.228571" style="fill: #555555; stroke: #555555; stroke-width: 0.8"/>
      </g>
     </g>
     <g id="text_3">
      <!-- 6 -->
      <g style="fill: #555555" transform="translate(158.070816 315.386071)scale(0.16 -0.16)">
       <defs>
        <path id="DejaVuSans-36" d="M 2113 2584 
Q 1688 2584 1439 2293 
Q 1191 2003 1191 1497 
Q 1191 994 1439 701 
Q 1688 409 2113 409 
Q 2538 409 2786 701 
Q 3034 994 3034 1497 
Q 3034 2003 2786 2293 
Q 2538 2584 2113 2584 
z
M 3366 4563 
L 3366 3988 
Q 3128 4100 2886 4159 
Q 2644 4219 2406 4219 
Q 1781 4219 1451 3797 
Q 1122 3375 1075 2522 
Q 1259 2794 1537 2939 
Q 1816 3084 2150 3084 
Q 2853 3084 3261 2657 
Q 3669 2231 3669 1497 
Q 3669 778 3244 343 
Q 2819 -91 2113 -91 
Q 1303 -91 875 529 
Q 447 1150 447 2328 
Q 447 3434 972 4092 
Q 1497 4750 2381 4750 
Q 2619 4750 2861 4703 
Q 3103 4656 3366 4563 
z
" transform="scale(0.015625)"/>
       </defs>
       <use xlink:href="#DejaVuSans-36"/>
      </g>
     </g>
    </g>
    <g id="xtick_4">
     <g id="line2d_7">
      <path d="M 210.181224 296.228571 
L 210.181224 41.472 
" clip-path="url(#p34cfd70923)" style="fill: none; stroke: #ffffff; stroke-width: 0.8; stroke-linecap: square"/>
     </g>
     <g id="line2d_8">
      <g>
       <use xlink:href="#m9f1f869e90" x="210.181224" y="296.228571" style="fill: #555555; stroke: #555555; stroke-width: 0.8"/>
      </g>
     </g>
     <g id="text_4">
      <!-- 8 -->
      <g style="fill: #555555" transform="translate(205.091224 315.386071)scale(0.16 -0.16)">
       <defs>
        <path id="DejaVuSans-38" d="M 2034 2216 
Q 1584 2216 1326 1975 
Q 1069 1734 1069 1313 
Q 1069 891 1326 650 
Q 1584 409 2034 409 
Q 2484 409 2743 651 
Q 3003 894 3003 1313 
Q 3003 1734 2745 1975 
Q 2488 2216 2034 2216 
z
M 1403 2484 
Q 997 2584 770 2862 
Q 544 3141 544 3541 
Q 544 4100 942 4425 
Q 1341 4750 2034 4750 
Q 2731 4750 3128 4425 
Q 3525 4100 3525 3541 
Q 3525 3141 3298 2862 
Q 3072 2584 2669 2484 
Q 3125 2378 3379 2068 
Q 3634 1759 3634 1313 
Q 3634 634 3220 271 
Q 2806 -91 2034 -91 
Q 1263 -91 848 271 
Q 434 634 434 1313 
Q 434 1759 690 2068 
Q 947 2378 1403 2484 
z
M 1172 3481 
Q 1172 3119 1398 2916 
Q 1625 2713 2034 2713 
Q 2441 2713 2670 2916 
Q 2900 3119 2900 3481 
Q 2900 3844 2670 4047 
Q 2441 4250 2034 4250 
Q 1625 4250 1398 4047 
Q 1172 3844 1172 3481 
z
" transform="scale(0.015625)"/>
       </defs>
       <use xlink:href="#DejaVuSans-38"/>
      </g>
     </g>
    </g>
    <g id="xtick_5">
     <g id="line2d_9">
      <path d="M 257.201633 296.228571 
L 257.201633 41.472 
" clip-path="url(#p34cfd70923)" style="fill: none; stroke: #ffffff; stroke-width: 0.8; stroke-linecap: square"/>
     </g>
     <g id="line2d_10">
      <g>
       <use xlink:href="#m9f1f869e90" x="257.201633" y="296.228571" style="fill: #555555; stroke: #555555; stroke-width: 0.8"/>
      </g>
     </g>
     <g id="text_5">
      <!-- 10 -->
      <g style="fill: #555555" transform="translate(247.021633 315.386071)scale(0.16 -0.16)">
       <defs>
        <path id="DejaVuSans-31" d="M 794 531 
L 1825 531 
L 1825 4091 
L 703 3866 
L 703 4441 
L 1819 4666 
L 2450 4666 
L 2450 531 
L 3481 531 
L 3481 0 
L 794 0 
L 794 531 
z
" transform="scale(0.015625)"/>
        <path id="DejaVuSans-30" d="M 2034 4250 
Q 1547 4250 1301 3770 
Q 1056 3291 1056 2328 
Q 1056 1369 1301 889 
Q 1547 409 2034 409 
Q 2525 409 2770 889 
Q 3016 1369 3016 2328 
Q 3016 3291 2770 3770 
Q 2525 4250 2034 4250 
z
M 2034 4750 
Q 2819 4750 3233 4129 
Q 3647 3509 3647 2328 
Q 3647 1150 3233 529 
Q 2819 -91 2034 -91 
Q 1250 -91 836 529 
Q 422 1150 422 2328 
Q 422 3509 836 4129 
Q 1250 4750 2034 4750 
z
" transform="scale(0.015625)"/>
       </defs>
       <use xlink:href="#DejaVuSans-31"/>
       <use xlink:href="#DejaVuSans-30" x="63.623047"/>
      </g>
     </g>
    </g>
    <g id="xtick_6">
     <g id="line2d_11">
      <path d="M 304.222041 296.228571 
L 304.222041 41.472 
" clip-path="url(#p34cfd70923)" style="fill: none; stroke: #ffffff; stroke-width: 0.8; stroke-linecap: square"/>
     </g>
     <g id="line2d_12">
      <g>
       <use xlink:href="#m9f1f869e90" x="304.222041" y="296.228571" style="fill: #555555; stroke: #555555; stroke-width: 0.8"/>
      </g>
     </g>
     <g id="text_6">
      <!-- 12 -->
      <g style="fill: #555555" transform="translate(294.042041 315.386071)scale(0.16 -0.16)">
       <use xlink:href="#DejaVuSans-31"/>
       <use xlink:href="#DejaVuSans-32" x="63.623047"/>
      </g>
     </g>
    </g>
    <g id="xtick_7">
     <g id="line2d_13">
      <path d="M 351.242449 296.228571 
L 351.242449 41.472 
" clip-path="url(#p34cfd70923)" style="fill: none; stroke: #ffffff; stroke-width: 0.8; stroke-linecap: square"/>
     </g>
     <g id="line2d_14">
      <g>
       <use xlink:href="#m9f1f869e90" x="351.242449" y="296.228571" style="fill: #555555; stroke: #555555; stroke-width: 0.8"/>
      </g>
     </g>
     <g id="text_7">
      <!-- 14 -->
      <g style="fill: #555555" transform="translate(341.062449 315.386071)scale(0.16 -0.16)">
       <use xlink:href="#DejaVuSans-31"/>
       <use xlink:href="#DejaVuSans-34" x="63.623047"/>
      </g>
     </g>
    </g>
    <g id="xtick_8">
     <g id="line2d_15">
      <path d="M 398.262857 296.228571 
L 398.262857 41.472 
" clip-path="url(#p34cfd70923)" style="fill: none; stroke: #ffffff; stroke-width: 0.8; stroke-linecap: square"/>
     </g>
     <g id="line2d_16">
      <g>
       <use xlink:href="#m9f1f869e90" x="398.262857" y="296.228571" style="fill: #555555; stroke: #555555; stroke-width: 0.8"/>
      </g>
     </g>
     <g id="text_8">
      <!-- 16 -->
      <g style="fill: #555555" transform="translate(388.082857 315.386071)scale(0.16 -0.16)">
       <use xlink:href="#DejaVuSans-31"/>
       <use xlink:href="#DejaVuSans-36" x="63.623047"/>
      </g>
     </g>
    </g>
    <g id="text_9">
     <!-- Partition Number -->
     <g transform="translate(148.669554 337.910446)scale(0.2 -0.2)">
      <defs>
       <path id="DejaVuSans-50" d="M 1259 4147 
L 1259 2394 
L 2053 2394 
Q 2494 2394 2734 2622 
Q 2975 2850 2975 3272 
Q 2975 3691 2734 3919 
Q 2494 4147 2053 4147 
L 1259 4147 
z
M 628 4666 
L 2053 4666 
Q 2838 4666 3239 4311 
Q 3641 3956 3641 3272 
Q 3641 2581 3239 2228 
Q 2838 1875 2053 1875 
L 1259 1875 
L 1259 0 
L 628 0 
L 628 4666 
z
" transform="scale(0.015625)"/>
       <path id="DejaVuSans-61" d="M 2194 1759 
Q 1497 1759 1228 1600 
Q 959 1441 959 1056 
Q 959 750 1161 570 
Q 1363 391 1709 391 
Q 2188 391 2477 730 
Q 2766 1069 2766 1631 
L 2766 1759 
L 2194 1759 
z
M 3341 1997 
L 3341 0 
L 2766 0 
L 2766 531 
Q 2569 213 2275 61 
Q 1981 -91 1556 -91 
Q 1019 -91 701 211 
Q 384 513 384 1019 
Q 384 1609 779 1909 
Q 1175 2209 1959 2209 
L 2766 2209 
L 2766 2266 
Q 2766 2663 2505 2880 
Q 2244 3097 1772 3097 
Q 1472 3097 1187 3025 
Q 903 2953 641 2809 
L 641 3341 
Q 956 3463 1253 3523 
Q 1550 3584 1831 3584 
Q 2591 3584 2966 3190 
Q 3341 2797 3341 1997 
z
" transform="scale(0.015625)"/>
       <path id="DejaVuSans-72" d="M 2631 2963 
Q 2534 3019 2420 3045 
Q 2306 3072 2169 3072 
Q 1681 3072 1420 2755 
Q 1159 2438 1159 1844 
L 1159 0 
L 581 0 
L 581 3500 
L 1159 3500 
L 1159 2956 
Q 1341 3275 1631 3429 
Q 1922 3584 2338 3584 
Q 2397 3584 2469 3576 
Q 2541 3569 2628 3553 
L 2631 2963 
z
" transform="scale(0.015625)"/>
       <path id="DejaVuSans-74" d="M 1172 4494 
L 1172 3500 
L 2356 3500 
L 2356 3053 
L 1172 3053 
L 1172 1153 
Q 1172 725 1289 603 
Q 1406 481 1766 481 
L 2356 481 
L 2356 0 
L 1766 0 
Q 1100 0 847 248 
Q 594 497 594 1153 
L 594 3053 
L 172 3053 
L 172 3500 
L 594 3500 
L 594 4494 
L 1172 4494 
z
" transform="scale(0.015625)"/>
       <path id="DejaVuSans-69" d="M 603 3500 
L 1178 3500 
L 1178 0 
L 603 0 
L 603 3500 
z
M 603 4863 
L 1178 4863 
L 1178 4134 
L 603 4134 
L 603 4863 
z
" transform="scale(0.015625)"/>
       <path id="DejaVuSans-6f" d="M 1959 3097 
Q 1497 3097 1228 2736 
Q 959 2375 959 1747 
Q 959 1119 1226 758 
Q 1494 397 1959 397 
Q 2419 397 2687 759 
Q 2956 1122 2956 1747 
Q 2956 2369 2687 2733 
Q 2419 3097 1959 3097 
z
M 1959 3584 
Q 2709 3584 3137 3096 
Q 3566 2609 3566 1747 
Q 3566 888 3137 398 
Q 2709 -91 1959 -91 
Q 1206 -91 779 398 
Q 353 888 353 1747 
Q 353 2609 779 3096 
Q 1206 3584 1959 3584 
z
" transform="scale(0.015625)"/>
       <path id="DejaVuSans-6e" d="M 3513 2113 
L 3513 0 
L 2938 0 
L 2938 2094 
Q 2938 2591 2744 2837 
Q 2550 3084 2163 3084 
Q 1697 3084 1428 2787 
Q 1159 2491 1159 1978 
L 1159 0 
L 581 0 
L 581 3500 
L 1159 3500 
L 1159 2956 
Q 1366 3272 1645 3428 
Q 1925 3584 2291 3584 
Q 2894 3584 3203 3211 
Q 3513 2838 3513 2113 
z
" transform="scale(0.015625)"/>
       <path id="DejaVuSans-20" transform="scale(0.015625)"/>
       <path id="DejaVuSans-4e" d="M 628 4666 
L 1478 4666 
L 3547 763 
L 3547 4666 
L 4159 4666 
L 4159 0 
L 3309 0 
L 1241 3903 
L 1241 0 
L 628 0 
L 628 4666 
z
" transform="scale(0.015625)"/>
       <path id="DejaVuSans-75" d="M 544 1381 
L 544 3500 
L 1119 3500 
L 1119 1403 
Q 1119 906 1312 657 
Q 1506 409 1894 409 
Q 2359 409 2629 706 
Q 2900 1003 2900 1516 
L 2900 3500 
L 3475 3500 
L 3475 0 
L 2900 0 
L 2900 538 
Q 2691 219 2414 64 
Q 2138 -91 1772 -91 
Q 1169 -91 856 284 
Q 544 659 544 1381 
z
M 1991 3584 
L 1991 3584 
z
" transform="scale(0.015625)"/>
       <path id="DejaVuSans-6d" d="M 3328 2828 
Q 3544 3216 3844 3400 
Q 4144 3584 4550 3584 
Q 5097 3584 5394 3201 
Q 5691 2819 5691 2113 
L 5691 0 
L 5113 0 
L 5113 2094 
Q 5113 2597 4934 2840 
Q 4756 3084 4391 3084 
Q 3944 3084 3684 2787 
Q 3425 2491 3425 1978 
L 3425 0 
L 2847 0 
L 2847 2094 
Q 2847 2600 2669 2842 
Q 2491 3084 2119 3084 
Q 1678 3084 1418 2786 
Q 1159 2488 1159 1978 
L 1159 0 
L 581 0 
L 581 3500 
L 1159 3500 
L 1159 2956 
Q 1356 3278 1631 3431 
Q 1906 3584 2284 3584 
Q 2666 3584 2933 3390 
Q 3200 3197 3328 2828 
z
" transform="scale(0.015625)"/>
       <path id="DejaVuSans-62" d="M 3116 1747 
Q 3116 2381 2855 2742 
Q 2594 3103 2138 3103 
Q 1681 3103 1420 2742 
Q 1159 2381 1159 1747 
Q 1159 1113 1420 752 
Q 1681 391 2138 391 
Q 2594 391 2855 752 
Q 3116 1113 3116 1747 
z
M 1159 2969 
Q 1341 3281 1617 3432 
Q 1894 3584 2278 3584 
Q 2916 3584 3314 3078 
Q 3713 2572 3713 1747 
Q 3713 922 3314 415 
Q 2916 -91 2278 -91 
Q 1894 -91 1617 61 
Q 1341 213 1159 525 
L 1159 0 
L 581 0 
L 581 4863 
L 1159 4863 
L 1159 2969 
z
" transform="scale(0.015625)"/>
       <path id="DejaVuSans-65" d="M 3597 1894 
L 3597 1613 
L 953 1613 
Q 991 1019 1311 708 
Q 1631 397 2203 397 
Q 2534 397 2845 478 
Q 3156 559 3463 722 
L 3463 178 
Q 3153 47 2828 -22 
Q 2503 -91 2169 -91 
Q 1331 -91 842 396 
Q 353 884 353 1716 
Q 353 2575 817 3079 
Q 1281 3584 2069 3584 
Q 2775 3584 3186 3129 
Q 3597 2675 3597 1894 
z
M 3022 2063 
Q 3016 2534 2758 2815 
Q 2500 3097 2075 3097 
Q 1594 3097 1305 2825 
Q 1016 2553 972 2059 
L 3022 2063 
z
" transform="scale(0.015625)"/>
      </defs>
      <use xlink:href="#DejaVuSans-50"/>
      <use xlink:href="#DejaVuSans-61" x="55.802734"/>
      <use xlink:href="#DejaVuSans-72" x="117.082031"/>
      <use xlink:href="#DejaVuSans-74" x="158.195312"/>
      <use xlink:href="#DejaVuSans-69" x="197.404297"/>
      <use xlink:href="#DejaVuSans-74" x="225.1875"/>
      <use xlink:href="#DejaVuSans-69" x="264.396484"/>
      <use xlink:href="#DejaVuSans-6f" x="292.179688"/>
      <use xlink:href="#DejaVuSans-6e" x="353.361328"/>
      <use xlink:href="#DejaVuSans-20" x="416.740234"/>
      <use xlink:href="#DejaVuSans-4e" x="448.527344"/>
      <use xlink:href="#DejaVuSans-75" x="523.332031"/>
      <use xlink:href="#DejaVuSans-6d" x="586.710938"/>
      <use xlink:href="#DejaVuSans-62" x="684.123047"/>
      <use xlink:href="#DejaVuSans-65" x="747.599609"/>
      <use xlink:href="#DejaVuSans-72" x="809.123047"/>
     </g>
    </g>
   </g>
   <g id="matplotlib.axis_2">
    <g id="ytick_1">
     <g id="line2d_17">
      <path d="M 52.662857 284.748325 
L 414.72 284.748325 
" clip-path="url(#p34cfd70923)" style="fill: none; stroke: #ffffff; stroke-width: 0.8; stroke-linecap: square"/>
     </g>
     <g id="line2d_18">
      <defs>
       <path id="m07c5f1fd57" d="M 0 0 
L -3.5 0 
" style="stroke: #555555; stroke-width: 0.8"/>
      </defs>
      <g>
       <use xlink:href="#m07c5f1fd57" x="52.662857" y="284.748325" style="fill: #555555; stroke: #555555; stroke-width: 0.8"/>
      </g>
     </g>
     <g id="text_10">
      <!-- 0 -->
      <g style="fill: #555555" transform="translate(35.482857 290.827075)scale(0.16 -0.16)">
       <use xlink:href="#DejaVuSans-30"/>
      </g>
     </g>
    </g>
    <g id="ytick_2">
     <g id="line2d_19">
      <path d="M 52.662857 251.54923 
L 414.72 251.54923 
" clip-path="url(#p34cfd70923)" style="fill: none; stroke: #ffffff; stroke-width: 0.8; stroke-linecap: square"/>
     </g>
     <g id="line2d_20">
      <g>
       <use xlink:href="#m07c5f1fd57" x="52.662857" y="251.54923" style="fill: #555555; stroke: #555555; stroke-width: 0.8"/>
      </g>
     </g>
     <g id="text_11">
      <!-- 1 -->
      <g style="fill: #555555" transform="translate(35.482857 257.62798)scale(0.16 -0.16)">
       <use xlink:href="#DejaVuSans-31"/>
      </g>
     </g>
    </g>
    <g id="ytick_3">
     <g id="line2d_21">
      <path d="M 52.662857 218.350136 
L 414.72 218.350136 
" clip-path="url(#p34cfd70923)" style="fill: none; stroke: #ffffff; stroke-width: 0.8; stroke-linecap: square"/>
     </g>
     <g id="line2d_22">
      <g>
       <use xlink:href="#m07c5f1fd57" x="52.662857" y="218.350136" style="fill: #555555; stroke: #555555; stroke-width: 0.8"/>
      </g>
     </g>
     <g id="text_12">
      <!-- 2 -->
      <g style="fill: #555555" transform="translate(35.482857 224.428886)scale(0.16 -0.16)">
       <use xlink:href="#DejaVuSans-32"/>
      </g>
     </g>
    </g>
    <g id="ytick_4">
     <g id="line2d_23">
      <path d="M 52.662857 185.151041 
L 414.72 185.151041 
" clip-path="url(#p34cfd70923)" style="fill: none; stroke: #ffffff; stroke-width: 0.8; stroke-linecap: square"/>
     </g>
     <g id="line2d_24">
      <g>
       <use xlink:href="#m07c5f1fd57" x="52.662857" y="185.151041" style="fill: #555555; stroke: #555555; stroke-width: 0.8"/>
      </g>
     </g>
     <g id="text_13">
      <!-- 3 -->
      <g style="fill: #555555" transform="translate(35.482857 191.229791)scale(0.16 -0.16)">
       <defs>
        <path id="DejaVuSans-33" d="M 2597 2516 
Q 3050 2419 3304 2112 
Q 3559 1806 3559 1356 
Q 3559 666 3084 287 
Q 2609 -91 1734 -91 
Q 1441 -91 1130 -33 
Q 819 25 488 141 
L 488 750 
Q 750 597 1062 519 
Q 1375 441 1716 441 
Q 2309 441 2620 675 
Q 2931 909 2931 1356 
Q 2931 1769 2642 2001 
Q 2353 2234 1838 2234 
L 1294 2234 
L 1294 2753 
L 1863 2753 
Q 2328 2753 2575 2939 
Q 2822 3125 2822 3475 
Q 2822 3834 2567 4026 
Q 2313 4219 1838 4219 
Q 1578 4219 1281 4162 
Q 984 4106 628 3988 
L 628 4550 
Q 988 4650 1302 4700 
Q 1616 4750 1894 4750 
Q 2613 4750 3031 4423 
Q 3450 4097 3450 3541 
Q 3450 3153 3228 2886 
Q 3006 2619 2597 2516 
z
" transform="scale(0.015625)"/>
       </defs>
       <use xlink:href="#DejaVuSans-33"/>
      </g>
     </g>
    </g>
    <g id="ytick_5">
     <g id="line2d_25">
      <path d="M 52.662857 151.951947 
L 414.72 151.951947 
" clip-path="url(#p34cfd70923)" style="fill: none; stroke: #ffffff; stroke-width: 0.8; stroke-linecap: square"/>
     </g>
     <g id="line2d_26">
      <g>
       <use xlink:href="#m07c5f1fd57" x="52.662857" y="151.951947" style="fill: #555555; stroke: #555555; stroke-width: 0.8"/>
      </g>
     </g>
     <g id="text_14">
      <!-- 4 -->
      <g style="fill: #555555" transform="translate(35.482857 158.030697)scale(0.16 -0.16)">
       <use xlink:href="#DejaVuSans-34"/>
      </g>
     </g>
    </g>
    <g id="ytick_6">
     <g id="line2d_27">
      <path d="M 52.662857 118.752852 
L 414.72 118.752852 
" clip-path="url(#p34cfd70923)" style="fill: none; stroke: #ffffff; stroke-width: 0.8; stroke-linecap: square"/>
     </g>
     <g id="line2d_28">
      <g>
       <use xlink:href="#m07c5f1fd57" x="52.662857" y="118.752852" style="fill: #555555; stroke: #555555; stroke-width: 0.8"/>
      </g>
     </g>
     <g id="text_15">
      <!-- 5 -->
      <g style="fill: #555555" transform="translate(35.482857 124.831602)scale(0.16 -0.16)">
       <defs>
        <path id="DejaVuSans-35" d="M 691 4666 
L 3169 4666 
L 3169 4134 
L 1269 4134 
L 1269 2991 
Q 1406 3038 1543 3061 
Q 1681 3084 1819 3084 
Q 2600 3084 3056 2656 
Q 3513 2228 3513 1497 
Q 3513 744 3044 326 
Q 2575 -91 1722 -91 
Q 1428 -91 1123 -41 
Q 819 9 494 109 
L 494 744 
Q 775 591 1075 516 
Q 1375 441 1709 441 
Q 2250 441 2565 725 
Q 2881 1009 2881 1497 
Q 2881 1984 2565 2268 
Q 2250 2553 1709 2553 
Q 1456 2553 1204 2497 
Q 953 2441 691 2322 
L 691 4666 
z
" transform="scale(0.015625)"/>
       </defs>
       <use xlink:href="#DejaVuSans-35"/>
      </g>
     </g>
    </g>
    <g id="ytick_7">
     <g id="line2d_29">
      <path d="M 52.662857 85.553758 
L 414.72 85.553758 
" clip-path="url(#p34cfd70923)" style="fill: none; stroke: #ffffff; stroke-width: 0.8; stroke-linecap: square"/>
     </g>
     <g id="line2d_30">
      <g>
       <use xlink:href="#m07c5f1fd57" x="52.662857" y="85.553758" style="fill: #555555; stroke: #555555; stroke-width: 0.8"/>
      </g>
     </g>
     <g id="text_16">
      <!-- 6 -->
      <g style="fill: #555555" transform="translate(35.482857 91.632508)scale(0.16 -0.16)">
       <use xlink:href="#DejaVuSans-36"/>
      </g>
     </g>
    </g>
    <g id="ytick_8">
     <g id="line2d_31">
      <path d="M 52.662857 52.354663 
L 414.72 52.354663 
" clip-path="url(#p34cfd70923)" style="fill: none; stroke: #ffffff; stroke-width: 0.8; stroke-linecap: square"/>
     </g>
     <g id="line2d_32">
      <g>
       <use xlink:href="#m07c5f1fd57" x="52.662857" y="52.354663" style="fill: #555555; stroke: #555555; stroke-width: 0.8"/>
      </g>
     </g>
     <g id="text_17">
      <!-- 7 -->
      <g style="fill: #555555" transform="translate(35.482857 58.433413)scale(0.16 -0.16)">
       <defs>
        <path id="DejaVuSans-37" d="M 525 4666 
L 3525 4666 
L 3525 4397 
L 1831 0 
L 1172 0 
L 2766 4134 
L 525 4134 
L 525 4666 
z
" transform="scale(0.015625)"/>
       </defs>
       <use xlink:href="#DejaVuSans-37"/>
      </g>
     </g>
    </g>
    <g id="text_18">
     <!-- Balance Measure -->
     <g transform="translate(27.323482 254.408098)rotate(-90)scale(0.2 -0.2)">
      <defs>
       <path id="DejaVuSans-42" d="M 1259 2228 
L 1259 519 
L 2272 519 
Q 2781 519 3026 730 
Q 3272 941 3272 1375 
Q 3272 1813 3026 2020 
Q 2781 2228 2272 2228 
L 1259 2228 
z
M 1259 4147 
L 1259 2741 
L 2194 2741 
Q 2656 2741 2882 2914 
Q 3109 3088 3109 3444 
Q 3109 3797 2882 3972 
Q 2656 4147 2194 4147 
L 1259 4147 
z
M 628 4666 
L 2241 4666 
Q 2963 4666 3353 4366 
Q 3744 4066 3744 3513 
Q 3744 3084 3544 2831 
Q 3344 2578 2956 2516 
Q 3422 2416 3680 2098 
Q 3938 1781 3938 1306 
Q 3938 681 3513 340 
Q 3088 0 2303 0 
L 628 0 
L 628 4666 
z
" transform="scale(0.015625)"/>
       <path id="DejaVuSans-6c" d="M 603 4863 
L 1178 4863 
L 1178 0 
L 603 0 
L 603 4863 
z
" transform="scale(0.015625)"/>
       <path id="DejaVuSans-63" d="M 3122 3366 
L 3122 2828 
Q 2878 2963 2633 3030 
Q 2388 3097 2138 3097 
Q 1578 3097 1268 2742 
Q 959 2388 959 1747 
Q 959 1106 1268 751 
Q 1578 397 2138 397 
Q 2388 397 2633 464 
Q 2878 531 3122 666 
L 3122 134 
Q 2881 22 2623 -34 
Q 2366 -91 2075 -91 
Q 1284 -91 818 406 
Q 353 903 353 1747 
Q 353 2603 823 3093 
Q 1294 3584 2113 3584 
Q 2378 3584 2631 3529 
Q 2884 3475 3122 3366 
z
" transform="scale(0.015625)"/>
       <path id="DejaVuSans-4d" d="M 628 4666 
L 1569 4666 
L 2759 1491 
L 3956 4666 
L 4897 4666 
L 4897 0 
L 4281 0 
L 4281 4097 
L 3078 897 
L 2444 897 
L 1241 4097 
L 1241 0 
L 628 0 
L 628 4666 
z
" transform="scale(0.015625)"/>
       <path id="DejaVuSans-73" d="M 2834 3397 
L 2834 2853 
Q 2591 2978 2328 3040 
Q 2066 3103 1784 3103 
Q 1356 3103 1142 2972 
Q 928 2841 928 2578 
Q 928 2378 1081 2264 
Q 1234 2150 1697 2047 
L 1894 2003 
Q 2506 1872 2764 1633 
Q 3022 1394 3022 966 
Q 3022 478 2636 193 
Q 2250 -91 1575 -91 
Q 1294 -91 989 -36 
Q 684 19 347 128 
L 347 722 
Q 666 556 975 473 
Q 1284 391 1588 391 
Q 1994 391 2212 530 
Q 2431 669 2431 922 
Q 2431 1156 2273 1281 
Q 2116 1406 1581 1522 
L 1381 1569 
Q 847 1681 609 1914 
Q 372 2147 372 2553 
Q 372 3047 722 3315 
Q 1072 3584 1716 3584 
Q 2034 3584 2315 3537 
Q 2597 3491 2834 3397 
z
" transform="scale(0.015625)"/>
      </defs>
      <use xlink:href="#DejaVuSans-42"/>
      <use xlink:href="#DejaVuSans-61" x="68.603516"/>
      <use xlink:href="#DejaVuSans-6c" x="129.882812"/>
      <use xlink:href="#DejaVuSans-61" x="157.666016"/>
      <use xlink:href="#DejaVuSans-6e" x="218.945312"/>
      <use xlink:href="#DejaVuSans-63" x="282.324219"/>
      <use xlink:href="#DejaVuSans-65" x="337.304688"/>
      <use xlink:href="#DejaVuSans-20" x="398.828125"/>
      <use xlink:href="#DejaVuSans-4d" x="430.615234"/>
      <use xlink:href="#DejaVuSans-65" x="516.894531"/>
      <use xlink:href="#DejaVuSans-61" x="578.417969"/>
      <use xlink:href="#DejaVuSans-73" x="639.697266"/>
      <use xlink:href="#DejaVuSans-75" x="691.796875"/>
      <use xlink:href="#DejaVuSans-72" x="755.175781"/>
      <use xlink:href="#DejaVuSans-65" x="794.039062"/>
     </g>
    </g>
   </g>
   <g id="line2d_33">
    <path d="M 69.12 284.615528 
L 92.630204 284.648727 
L 116.140408 284.582329 
L 139.650612 284.54913 
L 163.160816 284.515931 
L 186.67102 284.582329 
L 210.181224 284.316736 
L 233.691429 284.449533 
L 257.201633 284.449533 
L 280.711837 284.349935 
L 304.222041 284.283537 
L 327.732245 284.349935 
L 351.242449 284.283537 
L 374.752653 284.316736 
L 398.262857 284.217139 
" clip-path="url(#p34cfd70923)" style="fill: none; stroke-dasharray: 9.6,2.4,1.5,2.4; stroke-dashoffset: 0; stroke: #e24a33; stroke-width: 1.5"/>
    <defs>
     <path id="m318253a954" d="M -6 6 
L 6 6 
L 6 -6 
L -6 -6 
z
" style="stroke: #e24a33; stroke-linejoin: miter"/>
    </defs>
    <g clip-path="url(#p34cfd70923)">
     <use xlink:href="#m318253a954" x="69.12" y="284.615528" style="fill: #e24a33; stroke: #e24a33; stroke-linejoin: miter"/>
     <use xlink:href="#m318253a954" x="92.630204" y="284.648727" style="fill: #e24a33; stroke: #e24a33; stroke-linejoin: miter"/>
     <use xlink:href="#m318253a954" x="116.140408" y="284.582329" style="fill: #e24a33; stroke: #e24a33; stroke-linejoin: miter"/>
     <use xlink:href="#m318253a954" x="139.650612" y="284.54913" style="fill: #e24a33; stroke: #e24a33; stroke-linejoin: miter"/>
     <use xlink:href="#m318253a954" x="163.160816" y="284.515931" style="fill: #e24a33; stroke: #e24a33; stroke-linejoin: miter"/>
     <use xlink:href="#m318253a954" x="186.67102" y="284.582329" style="fill: #e24a33; stroke: #e24a33; stroke-linejoin: miter"/>
     <use xlink:href="#m318253a954" x="210.181224" y="284.316736" style="fill: #e24a33; stroke: #e24a33; stroke-linejoin: miter"/>
     <use xlink:href="#m318253a954" x="233.691429" y="284.449533" style="fill: #e24a33; stroke: #e24a33; stroke-linejoin: miter"/>
     <use xlink:href="#m318253a954" x="257.201633" y="284.449533" style="fill: #e24a33; stroke: #e24a33; stroke-linejoin: miter"/>
     <use xlink:href="#m318253a954" x="280.711837" y="284.349935" style="fill: #e24a33; stroke: #e24a33; stroke-linejoin: miter"/>
     <use xlink:href="#m318253a954" x="304.222041" y="284.283537" style="fill: #e24a33; stroke: #e24a33; stroke-linejoin: miter"/>
     <use xlink:href="#m318253a954" x="327.732245" y="284.349935" style="fill: #e24a33; stroke: #e24a33; stroke-linejoin: miter"/>
     <use xlink:href="#m318253a954" x="351.242449" y="284.283537" style="fill: #e24a33; stroke: #e24a33; stroke-linejoin: miter"/>
     <use xlink:href="#m318253a954" x="374.752653" y="284.316736" style="fill: #e24a33; stroke: #e24a33; stroke-linejoin: miter"/>
     <use xlink:href="#m318253a954" x="398.262857" y="284.217139" style="fill: #e24a33; stroke: #e24a33; stroke-linejoin: miter"/>
    </g>
   </g>
   <g id="line2d_34">
    <path d="M 69.12 277.975709 
L 92.630204 269.841931 
L 116.140408 266.22323 
L 139.650612 263.401307 
L 163.160816 263.334909 
L 186.67102 254.171959 
L 210.181224 256.3299 
L 233.691429 253.773569 
L 257.201633 250.354063 
L 280.711837 249.125696 
L 304.222041 247.498941 
L 327.732245 247.963728 
L 351.242449 245.606592 
L 374.752653 244.743416 
L 398.262857 242.817868 
" clip-path="url(#p34cfd70923)" style="fill: none; stroke-dasharray: 5.55,2.4; stroke-dashoffset: 0; stroke: #348abd; stroke-width: 1.5"/>
    <defs>
     <path id="m9068ef02d4" d="M 0 5.656854 
L 5.656854 0 
L 0 -5.656854 
L -5.656854 0 
z
" style="stroke: #348abd; stroke-linejoin: miter"/>
    </defs>
    <g clip-path="url(#p34cfd70923)">
     <use xlink:href="#m9068ef02d4" x="69.12" y="277.975709" style="fill: #348abd; stroke: #348abd; stroke-linejoin: miter"/>
     <use xlink:href="#m9068ef02d4" x="92.630204" y="269.841931" style="fill: #348abd; stroke: #348abd; stroke-linejoin: miter"/>
     <use xlink:href="#m9068ef02d4" x="116.140408" y="266.22323" style="fill: #348abd; stroke: #348abd; stroke-linejoin: miter"/>
     <use xlink:href="#m9068ef02d4" x="139.650612" y="263.401307" style="fill: #348abd; stroke: #348abd; stroke-linejoin: miter"/>
     <use xlink:href="#m9068ef02d4" x="163.160816" y="263.334909" style="fill: #348abd; stroke: #348abd; stroke-linejoin: miter"/>
     <use xlink:href="#m9068ef02d4" x="186.67102" y="254.171959" style="fill: #348abd; stroke: #348abd; stroke-linejoin: miter"/>
     <use xlink:href="#m9068ef02d4" x="210.181224" y="256.3299" style="fill: #348abd; stroke: #348abd; stroke-linejoin: miter"/>
     <use xlink:href="#m9068ef02d4" x="233.691429" y="253.773569" style="fill: #348abd; stroke: #348abd; stroke-linejoin: miter"/>
     <use xlink:href="#m9068ef02d4" x="257.201633" y="250.354063" style="fill: #348abd; stroke: #348abd; stroke-linejoin: miter"/>
     <use xlink:href="#m9068ef02d4" x="280.711837" y="249.125696" style="fill: #348abd; stroke: #348abd; stroke-linejoin: miter"/>
     <use xlink:href="#m9068ef02d4" x="304.222041" y="247.498941" style="fill: #348abd; stroke: #348abd; stroke-linejoin: miter"/>
     <use xlink:href="#m9068ef02d4" x="327.732245" y="247.963728" style="fill: #348abd; stroke: #348abd; stroke-linejoin: miter"/>
     <use xlink:href="#m9068ef02d4" x="351.242449" y="245.606592" style="fill: #348abd; stroke: #348abd; stroke-linejoin: miter"/>
     <use xlink:href="#m9068ef02d4" x="374.752653" y="244.743416" style="fill: #348abd; stroke: #348abd; stroke-linejoin: miter"/>
     <use xlink:href="#m9068ef02d4" x="398.262857" y="242.817868" style="fill: #348abd; stroke: #348abd; stroke-linejoin: miter"/>
    </g>
   </g>
   <g id="line2d_35">
    <path d="M 69.12 270.406316 
L 92.630204 272.697053 
L 116.140408 264.098488 
L 139.650612 269.841931 
L 163.160816 262.239338 
L 186.67102 257.691063 
L 210.181224 254.371153 
L 233.691429 248.362117 
L 257.201633 249.656882 
L 280.711837 243.349054 
L 304.222041 240.294737 
L 327.732245 239.995945 
L 351.242449 245.639791 
L 374.752653 230.467805 
L 398.262857 235.182076 
" clip-path="url(#p34cfd70923)" style="fill: none; stroke-dasharray: 1.5,2.475; stroke-dashoffset: 0; stroke: #988ed5; stroke-width: 1.5"/>
    <defs>
     <path id="m1669019d54" d="M 0 -4 
L -4 4 
L 4 4 
z
" style="stroke: #988ed5; stroke-linejoin: miter"/>
    </defs>
    <g clip-path="url(#p34cfd70923)">
     <use xlink:href="#m1669019d54" x="69.12" y="270.406316" style="fill: #988ed5; stroke: #988ed5; stroke-linejoin: miter"/>
     <use xlink:href="#m1669019d54" x="92.630204" y="272.697053" style="fill: #988ed5; stroke: #988ed5; stroke-linejoin: miter"/>
     <use xlink:href="#m1669019d54" x="116.140408" y="264.098488" style="fill: #988ed5; stroke: #988ed5; stroke-linejoin: miter"/>
     <use xlink:href="#m1669019d54" x="139.650612" y="269.841931" style="fill: #988ed5; stroke: #988ed5; stroke-linejoin: miter"/>
     <use xlink:href="#m1669019d54" x="163.160816" y="262.239338" style="fill: #988ed5; stroke: #988ed5; stroke-linejoin: miter"/>
     <use xlink:href="#m1669019d54" x="186.67102" y="257.691063" style="fill: #988ed5; stroke: #988ed5; stroke-linejoin: miter"/>
     <use xlink:href="#m1669019d54" x="210.181224" y="254.371153" style="fill: #988ed5; stroke: #988ed5; stroke-linejoin: miter"/>
     <use xlink:href="#m1669019d54" x="233.691429" y="248.362117" style="fill: #988ed5; stroke: #988ed5; stroke-linejoin: miter"/>
     <use xlink:href="#m1669019d54" x="257.201633" y="249.656882" style="fill: #988ed5; stroke: #988ed5; stroke-linejoin: miter"/>
     <use xlink:href="#m1669019d54" x="280.711837" y="243.349054" style="fill: #988ed5; stroke: #988ed5; stroke-linejoin: miter"/>
     <use xlink:href="#m1669019d54" x="304.222041" y="240.294737" style="fill: #988ed5; stroke: #988ed5; stroke-linejoin: miter"/>
     <use xlink:href="#m1669019d54" x="327.732245" y="239.995945" style="fill: #988ed5; stroke: #988ed5; stroke-linejoin: miter"/>
     <use xlink:href="#m1669019d54" x="351.242449" y="245.639791" style="fill: #988ed5; stroke: #988ed5; stroke-linejoin: miter"/>
     <use xlink:href="#m1669019d54" x="374.752653" y="230.467805" style="fill: #988ed5; stroke: #988ed5; stroke-linejoin: miter"/>
     <use xlink:href="#m1669019d54" x="398.262857" y="235.182076" style="fill: #988ed5; stroke: #988ed5; stroke-linejoin: miter"/>
    </g>
   </g>
   <g id="line2d_36">
    <path d="M 69.12 276.647746 
L 92.630204 252.545203 
L 116.140408 244.876212 
L 139.650612 220.541276 
L 163.160816 205.502086 
L 186.67102 197.036317 
L 210.181224 173.166168 
L 233.691429 159.554539 
L 257.201633 146.573693 
L 280.711837 115.964128 
L 304.222041 133.161259 
L 327.732245 53.051844 
L 351.242449 88.010491 
L 374.752653 84.458188 
L 398.262857 69.053808 
" clip-path="url(#p34cfd70923)" style="fill: none; stroke-dasharray: 5.55,2.4; stroke-dashoffset: 0; stroke: #777777; stroke-width: 1.5"/>
    <defs>
     <path id="ma55b7addc3" d="M -2 -3.464102 
L -4 -0 
L -2 3.464102 
L 2 3.464102 
L 4 0 
L 2 -3.464102 
z
" style="stroke: #777777; stroke-linejoin: miter"/>
    </defs>
    <g clip-path="url(#p34cfd70923)">
     <use xlink:href="#ma55b7addc3" x="69.12" y="276.647746" style="fill: #777777; stroke: #777777; stroke-linejoin: miter"/>
     <use xlink:href="#ma55b7addc3" x="92.630204" y="252.545203" style="fill: #777777; stroke: #777777; stroke-linejoin: miter"/>
     <use xlink:href="#ma55b7addc3" x="116.140408" y="244.876212" style="fill: #777777; stroke: #777777; stroke-linejoin: miter"/>
     <use xlink:href="#ma55b7addc3" x="139.650612" y="220.541276" style="fill: #777777; stroke: #777777; stroke-linejoin: miter"/>
     <use xlink:href="#ma55b7addc3" x="163.160816" y="205.502086" style="fill: #777777; stroke: #777777; stroke-linejoin: miter"/>
     <use xlink:href="#ma55b7addc3" x="186.67102" y="197.036317" style="fill: #777777; stroke: #777777; stroke-linejoin: miter"/>
     <use xlink:href="#ma55b7addc3" x="210.181224" y="173.166168" style="fill: #777777; stroke: #777777; stroke-linejoin: miter"/>
     <use xlink:href="#ma55b7addc3" x="233.691429" y="159.554539" style="fill: #777777; stroke: #777777; stroke-linejoin: miter"/>
     <use xlink:href="#ma55b7addc3" x="257.201633" y="146.573693" style="fill: #777777; stroke: #777777; stroke-linejoin: miter"/>
     <use xlink:href="#ma55b7addc3" x="280.711837" y="115.964128" style="fill: #777777; stroke: #777777; stroke-linejoin: miter"/>
     <use xlink:href="#ma55b7addc3" x="304.222041" y="133.161259" style="fill: #777777; stroke: #777777; stroke-linejoin: miter"/>
     <use xlink:href="#ma55b7addc3" x="327.732245" y="53.051844" style="fill: #777777; stroke: #777777; stroke-linejoin: miter"/>
     <use xlink:href="#ma55b7addc3" x="351.242449" y="88.010491" style="fill: #777777; stroke: #777777; stroke-linejoin: miter"/>
     <use xlink:href="#ma55b7addc3" x="374.752653" y="84.458188" style="fill: #777777; stroke: #777777; stroke-linejoin: miter"/>
     <use xlink:href="#ma55b7addc3" x="398.262857" y="69.053808" style="fill: #777777; stroke: #777777; stroke-linejoin: miter"/>
    </g>
   </g>
   <g id="line2d_37">
    <path d="M 69.12 282.391189 
L 92.630204 281.030026 
L 116.140408 280.16685 
L 139.650612 281.229221 
L 163.160816 279.502868 
L 186.67102 267.152804 
L 210.181224 274.622601 
L 233.691429 260.977773 
L 257.201633 263.534103 
L 280.711837 252.810796 
L 304.222041 262.106542 
L 327.732245 233.090534 
L 351.242449 200.323027 
L 374.752653 183.557485 
L 398.262857 155.172259 
" clip-path="url(#p34cfd70923)" style="fill: none; stroke-dasharray: 5.55,2.4; stroke-dashoffset: 0; stroke: #fbc15e; stroke-width: 1.5"/>
    <defs>
     <path id="m04aa24042d" d="M 4 0 
L -4 -4 
L -4 4 
z
" style="stroke: #fbc15e; stroke-linejoin: miter"/>
    </defs>
    <g clip-path="url(#p34cfd70923)">
     <use xlink:href="#m04aa24042d" x="69.12" y="282.391189" style="fill: #fbc15e; stroke: #fbc15e; stroke-linejoin: miter"/>
     <use xlink:href="#m04aa24042d" x="92.630204" y="281.030026" style="fill: #fbc15e; stroke: #fbc15e; stroke-linejoin: miter"/>
     <use xlink:href="#m04aa24042d" x="116.140408" y="280.16685" style="fill: #fbc15e; stroke: #fbc15e; stroke-linejoin: miter"/>
     <use xlink:href="#m04aa24042d" x="139.650612" y="281.229221" style="fill: #fbc15e; stroke: #fbc15e; stroke-linejoin: miter"/>
     <use xlink:href="#m04aa24042d" x="163.160816" y="279.502868" style="fill: #fbc15e; stroke: #fbc15e; stroke-linejoin: miter"/>
     <use xlink:href="#m04aa24042d" x="186.67102" y="267.152804" style="fill: #fbc15e; stroke: #fbc15e; stroke-linejoin: miter"/>
     <use xlink:href="#m04aa24042d" x="210.181224" y="274.622601" style="fill: #fbc15e; stroke: #fbc15e; stroke-linejoin: miter"/>
     <use xlink:href="#m04aa24042d" x="233.691429" y="260.977773" style="fill: #fbc15e; stroke: #fbc15e; stroke-linejoin: miter"/>
     <use xlink:href="#m04aa24042d" x="257.201633" y="263.534103" style="fill: #fbc15e; stroke: #fbc15e; stroke-linejoin: miter"/>
     <use xlink:href="#m04aa24042d" x="280.711837" y="252.810796" style="fill: #fbc15e; stroke: #fbc15e; stroke-linejoin: miter"/>
     <use xlink:href="#m04aa24042d" x="304.222041" y="262.106542" style="fill: #fbc15e; stroke: #fbc15e; stroke-linejoin: miter"/>
     <use xlink:href="#m04aa24042d" x="327.732245" y="233.090534" style="fill: #fbc15e; stroke: #fbc15e; stroke-linejoin: miter"/>
     <use xlink:href="#m04aa24042d" x="351.242449" y="200.323027" style="fill: #fbc15e; stroke: #fbc15e; stroke-linejoin: miter"/>
     <use xlink:href="#m04aa24042d" x="374.752653" y="183.557485" style="fill: #fbc15e; stroke: #fbc15e; stroke-linejoin: miter"/>
     <use xlink:href="#m04aa24042d" x="398.262857" y="155.172259" style="fill: #fbc15e; stroke: #fbc15e; stroke-linejoin: miter"/>
    </g>
   </g>
   <g id="patch_3">
    <path d="M 52.662857 296.228571 
L 52.662857 41.472 
" style="fill: none; stroke: #ffffff; stroke-linejoin: miter; stroke-linecap: square"/>
   </g>
   <g id="patch_4">
    <path d="M 414.72 296.228571 
L 414.72 41.472 
" style="fill: none; stroke: #ffffff; stroke-linejoin: miter; stroke-linecap: square"/>
   </g>
   <g id="patch_5">
    <path d="M 52.662857 296.228571 
L 414.72 296.228571 
" style="fill: none; stroke: #ffffff; stroke-linejoin: miter; stroke-linecap: square"/>
   </g>
   <g id="patch_6">
    <path d="M 52.662857 41.472 
L 414.72 41.472 
" style="fill: none; stroke: #ffffff; stroke-linejoin: miter; stroke-linecap: square"/>
   </g>
   <g id="text_19">
    <!-- Full-Tree, n=4, depth=4 -->
    <g transform="translate(115.433616 35.472)scale(0.2 -0.2)">
     <defs>
      <path id="DejaVuSans-46" d="M 628 4666 
L 3309 4666 
L 3309 4134 
L 1259 4134 
L 1259 2759 
L 3109 2759 
L 3109 2228 
L 1259 2228 
L 1259 0 
L 628 0 
L 628 4666 
z
" transform="scale(0.015625)"/>
      <path id="DejaVuSans-2d" d="M 313 2009 
L 1997 2009 
L 1997 1497 
L 313 1497 
L 313 2009 
z
" transform="scale(0.015625)"/>
      <path id="DejaVuSans-54" d="M -19 4666 
L 3928 4666 
L 3928 4134 
L 2272 4134 
L 2272 0 
L 1638 0 
L 1638 4134 
L -19 4134 
L -19 4666 
z
" transform="scale(0.015625)"/>
      <path id="DejaVuSans-2c" d="M 750 794 
L 1409 794 
L 1409 256 
L 897 -744 
L 494 -744 
L 750 256 
L 750 794 
z
" transform="scale(0.015625)"/>
      <path id="DejaVuSans-3d" d="M 678 2906 
L 4684 2906 
L 4684 2381 
L 678 2381 
L 678 2906 
z
M 678 1631 
L 4684 1631 
L 4684 1100 
L 678 1100 
L 678 1631 
z
" transform="scale(0.015625)"/>
      <path id="DejaVuSans-64" d="M 2906 2969 
L 2906 4863 
L 3481 4863 
L 3481 0 
L 2906 0 
L 2906 525 
Q 2725 213 2448 61 
Q 2172 -91 1784 -91 
Q 1150 -91 751 415 
Q 353 922 353 1747 
Q 353 2572 751 3078 
Q 1150 3584 1784 3584 
Q 2172 3584 2448 3432 
Q 2725 3281 2906 2969 
z
M 947 1747 
Q 947 1113 1208 752 
Q 1469 391 1925 391 
Q 2381 391 2643 752 
Q 2906 1113 2906 1747 
Q 2906 2381 2643 2742 
Q 2381 3103 1925 3103 
Q 1469 3103 1208 2742 
Q 947 2381 947 1747 
z
" transform="scale(0.015625)"/>
      <path id="DejaVuSans-70" d="M 1159 525 
L 1159 -1331 
L 581 -1331 
L 581 3500 
L 1159 3500 
L 1159 2969 
Q 1341 3281 1617 3432 
Q 1894 3584 2278 3584 
Q 2916 3584 3314 3078 
Q 3713 2572 3713 1747 
Q 3713 922 3314 415 
Q 2916 -91 2278 -91 
Q 1894 -91 1617 61 
Q 1341 213 1159 525 
z
M 3116 1747 
Q 3116 2381 2855 2742 
Q 2594 3103 2138 3103 
Q 1681 3103 1420 2742 
Q 1159 2381 1159 1747 
Q 1159 1113 1420 752 
Q 1681 391 2138 391 
Q 2594 391 2855 752 
Q 3116 1113 3116 1747 
z
" transform="scale(0.015625)"/>
      <path id="DejaVuSans-68" d="M 3513 2113 
L 3513 0 
L 2938 0 
L 2938 2094 
Q 2938 2591 2744 2837 
Q 2550 3084 2163 3084 
Q 1697 3084 1428 2787 
Q 1159 2491 1159 1978 
L 1159 0 
L 581 0 
L 581 4863 
L 1159 4863 
L 1159 2956 
Q 1366 3272 1645 3428 
Q 1925 3584 2291 3584 
Q 2894 3584 3203 3211 
Q 3513 2838 3513 2113 
z
" transform="scale(0.015625)"/>
     </defs>
     <use xlink:href="#DejaVuSans-46"/>
     <use xlink:href="#DejaVuSans-75" x="52.019531"/>
     <use xlink:href="#DejaVuSans-6c" x="115.398438"/>
     <use xlink:href="#DejaVuSans-6c" x="143.181641"/>
     <use xlink:href="#DejaVuSans-2d" x="170.964844"/>
     <use xlink:href="#DejaVuSans-54" x="197.923828"/>
     <use xlink:href="#DejaVuSans-72" x="244.257812"/>
     <use xlink:href="#DejaVuSans-65" x="283.121094"/>
     <use xlink:href="#DejaVuSans-65" x="344.644531"/>
     <use xlink:href="#DejaVuSans-2c" x="406.167969"/>
     <use xlink:href="#DejaVuSans-20" x="437.955078"/>
     <use xlink:href="#DejaVuSans-6e" x="469.742188"/>
     <use xlink:href="#DejaVuSans-3d" x="533.121094"/>
     <use xlink:href="#DejaVuSans-34" x="616.910156"/>
     <use xlink:href="#DejaVuSans-2c" x="680.533203"/>
     <use xlink:href="#DejaVuSans-20" x="712.320312"/>
     <use xlink:href="#DejaVuSans-64" x="744.107422"/>
     <use xlink:href="#DejaVuSans-65" x="807.583984"/>
     <use xlink:href="#DejaVuSans-70" x="869.107422"/>
     <use xlink:href="#DejaVuSans-74" x="932.583984"/>
     <use xlink:href="#DejaVuSans-68" x="971.792969"/>
     <use xlink:href="#DejaVuSans-3d" x="1035.171875"/>
     <use xlink:href="#DejaVuSans-34" x="1118.960938"/>
    </g>
   </g>
   <g id="legend_1">
    <g id="patch_7">
     <path d="M 59.662857 78.82825 
L 276.587857 78.82825 
Q 278.587857 78.82825 278.587857 76.82825 
L 278.587857 48.472 
Q 278.587857 46.472 276.587857 46.472 
L 59.662857 46.472 
Q 57.662857 46.472 57.662857 48.472 
L 57.662857 76.82825 
Q 57.662857 78.82825 59.662857 78.82825 
z
" style="fill: #e5e5e5; opacity: 0.8; stroke: #cccccc; stroke-width: 0.5; stroke-linejoin: miter"/>
    </g>
    <g id="line2d_38">
     <path d="M 61.662857 54.570437 
L 71.662857 54.570437 
L 81.662857 54.570437 
" style="fill: none; stroke-dasharray: 9.6,2.4,1.5,2.4; stroke-dashoffset: 0; stroke: #e24a33; stroke-width: 1.5"/>
     <g>
      <use xlink:href="#m318253a954" x="71.662857" y="54.570437" style="fill: #e24a33; stroke: #e24a33; stroke-linejoin: miter"/>
     </g>
    </g>
    <g id="text_20">
     <!-- AC -->
     <g transform="translate(89.662857 58.070437)scale(0.1 -0.1)">
      <defs>
       <path id="DejaVuSans-41" d="M 2188 4044 
L 1331 1722 
L 3047 1722 
L 2188 4044 
z
M 1831 4666 
L 2547 4666 
L 4325 0 
L 3669 0 
L 3244 1197 
L 1141 1197 
L 716 0 
L 50 0 
L 1831 4666 
z
" transform="scale(0.015625)"/>
       <path id="DejaVuSans-43" d="M 4122 4306 
L 4122 3641 
Q 3803 3938 3442 4084 
Q 3081 4231 2675 4231 
Q 1875 4231 1450 3742 
Q 1025 3253 1025 2328 
Q 1025 1406 1450 917 
Q 1875 428 2675 428 
Q 3081 428 3442 575 
Q 3803 722 4122 1019 
L 4122 359 
Q 3791 134 3420 21 
Q 3050 -91 2638 -91 
Q 1578 -91 968 557 
Q 359 1206 359 2328 
Q 359 3453 968 4101 
Q 1578 4750 2638 4750 
Q 3056 4750 3426 4639 
Q 3797 4528 4122 4306 
z
" transform="scale(0.015625)"/>
      </defs>
      <use xlink:href="#DejaVuSans-41"/>
      <use xlink:href="#DejaVuSans-43" x="66.658203"/>
     </g>
    </g>
    <g id="line2d_39">
     <path d="M 61.662857 69.248562 
L 71.662857 69.248562 
L 81.662857 69.248562 
" style="fill: none; stroke-dasharray: 5.55,2.4; stroke-dashoffset: 0; stroke: #348abd; stroke-width: 1.5"/>
     <g>
      <use xlink:href="#m9068ef02d4" x="71.662857" y="69.248562" style="fill: #348abd; stroke: #348abd; stroke-linejoin: miter"/>
     </g>
    </g>
    <g id="text_21">
     <!-- DBH -->
     <g transform="translate(89.662857 72.748562)scale(0.1 -0.1)">
      <defs>
       <path id="DejaVuSans-44" d="M 1259 4147 
L 1259 519 
L 2022 519 
Q 2988 519 3436 956 
Q 3884 1394 3884 2338 
Q 3884 3275 3436 3711 
Q 2988 4147 2022 4147 
L 1259 4147 
z
M 628 4666 
L 1925 4666 
Q 3281 4666 3915 4102 
Q 4550 3538 4550 2338 
Q 4550 1131 3912 565 
Q 3275 0 1925 0 
L 628 0 
L 628 4666 
z
" transform="scale(0.015625)"/>
       <path id="DejaVuSans-48" d="M 628 4666 
L 1259 4666 
L 1259 2753 
L 3553 2753 
L 3553 4666 
L 4184 4666 
L 4184 0 
L 3553 0 
L 3553 2222 
L 1259 2222 
L 1259 0 
L 628 0 
L 628 4666 
z
" transform="scale(0.015625)"/>
      </defs>
      <use xlink:href="#DejaVuSans-44"/>
      <use xlink:href="#DejaVuSans-42" x="77.001953"/>
      <use xlink:href="#DejaVuSans-48" x="145.605469"/>
     </g>
    </g>
    <g id="line2d_40">
     <path d="M 131.744107 54.570437 
L 141.744107 54.570437 
L 151.744107 54.570437 
" style="fill: none; stroke-dasharray: 1.5,2.475; stroke-dashoffset: 0; stroke: #988ed5; stroke-width: 1.5"/>
     <g>
      <use xlink:href="#m1669019d54" x="141.744107" y="54.570437" style="fill: #988ed5; stroke: #988ed5; stroke-linejoin: miter"/>
     </g>
    </g>
    <g id="text_22">
     <!-- HDRF -->
     <g transform="translate(159.744107 58.070437)scale(0.1 -0.1)">
      <defs>
       <path id="DejaVuSans-52" d="M 2841 2188 
Q 3044 2119 3236 1894 
Q 3428 1669 3622 1275 
L 4263 0 
L 3584 0 
L 2988 1197 
Q 2756 1666 2539 1819 
Q 2322 1972 1947 1972 
L 1259 1972 
L 1259 0 
L 628 0 
L 628 4666 
L 2053 4666 
Q 2853 4666 3247 4331 
Q 3641 3997 3641 3322 
Q 3641 2881 3436 2590 
Q 3231 2300 2841 2188 
z
M 1259 4147 
L 1259 2491 
L 2053 2491 
Q 2509 2491 2742 2702 
Q 2975 2913 2975 3322 
Q 2975 3731 2742 3939 
Q 2509 4147 2053 4147 
L 1259 4147 
z
" transform="scale(0.015625)"/>
      </defs>
      <use xlink:href="#DejaVuSans-48"/>
      <use xlink:href="#DejaVuSans-44" x="75.195312"/>
      <use xlink:href="#DejaVuSans-52" x="152.197266"/>
      <use xlink:href="#DejaVuSans-46" x="221.679688"/>
     </g>
    </g>
    <g id="line2d_41">
     <path d="M 131.744107 69.248562 
L 141.744107 69.248562 
L 151.744107 69.248562 
" style="fill: none; stroke-dasharray: 5.55,2.4; stroke-dashoffset: 0; stroke: #777777; stroke-width: 1.5"/>
     <g>
      <use xlink:href="#ma55b7addc3" x="141.744107" y="69.248562" style="fill: #777777; stroke: #777777; stroke-linejoin: miter"/>
     </g>
    </g>
    <g id="text_23">
     <!-- LDG -->
     <g transform="translate(159.744107 72.748562)scale(0.1 -0.1)">
      <defs>
       <path id="DejaVuSans-4c" d="M 628 4666 
L 1259 4666 
L 1259 531 
L 3531 531 
L 3531 0 
L 628 0 
L 628 4666 
z
" transform="scale(0.015625)"/>
       <path id="DejaVuSans-47" d="M 3809 666 
L 3809 1919 
L 2778 1919 
L 2778 2438 
L 4434 2438 
L 4434 434 
Q 4069 175 3628 42 
Q 3188 -91 2688 -91 
Q 1594 -91 976 548 
Q 359 1188 359 2328 
Q 359 3472 976 4111 
Q 1594 4750 2688 4750 
Q 3144 4750 3555 4637 
Q 3966 4525 4313 4306 
L 4313 3634 
Q 3963 3931 3569 4081 
Q 3175 4231 2741 4231 
Q 1884 4231 1454 3753 
Q 1025 3275 1025 2328 
Q 1025 1384 1454 906 
Q 1884 428 2741 428 
Q 3075 428 3337 486 
Q 3600 544 3809 666 
z
" transform="scale(0.015625)"/>
      </defs>
      <use xlink:href="#DejaVuSans-4c"/>
      <use xlink:href="#DejaVuSans-44" x="55.712891"/>
      <use xlink:href="#DejaVuSans-47" x="132.714844"/>
     </g>
    </g>
    <g id="line2d_42">
     <path d="M 207.66442 54.570437 
L 217.66442 54.570437 
L 227.66442 54.570437 
" style="fill: none; stroke-dasharray: 5.55,2.4; stroke-dashoffset: 0; stroke: #fbc15e; stroke-width: 1.5"/>
     <g>
      <use xlink:href="#m04aa24042d" x="217.66442" y="54.570437" style="fill: #fbc15e; stroke: #fbc15e; stroke-linejoin: miter"/>
     </g>
    </g>
    <g id="text_24">
     <!-- FENNEL -->
     <g transform="translate(235.66442 58.070437)scale(0.1 -0.1)">
      <defs>
       <path id="DejaVuSans-45" d="M 628 4666 
L 3578 4666 
L 3578 4134 
L 1259 4134 
L 1259 2753 
L 3481 2753 
L 3481 2222 
L 1259 2222 
L 1259 531 
L 3634 531 
L 3634 0 
L 628 0 
L 628 4666 
z
" transform="scale(0.015625)"/>
      </defs>
      <use xlink:href="#DejaVuSans-46"/>
      <use xlink:href="#DejaVuSans-45" x="57.519531"/>
      <use xlink:href="#DejaVuSans-4e" x="120.703125"/>
      <use xlink:href="#DejaVuSans-4e" x="195.507812"/>
      <use xlink:href="#DejaVuSans-45" x="270.3125"/>
      <use xlink:href="#DejaVuSans-4c" x="333.496094"/>
     </g>
    </g>
   </g>
  </g>
 </g>
 <defs>
  <clipPath id="p34cfd70923">
   <rect x="52.662857" y="41.472" width="362.057143" height="254.756571"/>
  </clipPath>
 </defs>
</svg>
